<svg width="1280" height="69" viewBox="0 0 1280 69" fill="none" xmlns="http://www.w3.org/2000/svg">
<g clip-path="url(#clip0_5172_15333)">
<path fill-rule="evenodd" clip-rule="evenodd" d="M1073.85 66.0256C1073.05 65.9458 1072.29 65.6435 1071.66 65.1535C1071.03 64.6634 1070.54 64.0049 1070.26 63.2531C1069.98 62.5013 1069.92 61.6863 1070.08 60.9006C1070.24 60.1148 1070.62 59.3896 1071.17 58.8078C1071.72 58.2259 1072.42 57.8101 1073.2 57.6086L1073.2 15.7033C1072.41 15.481 1071.69 15.0329 1071.13 14.4064C1070.82 14.0519 1070.58 13.6508 1070.4 13.2218C1070.05 12.4852 1069.91 11.6606 1070.02 10.8429C1070.15 9.80587 1070.65 8.85238 1071.44 8.16129C1072.22 7.4702 1073.23 7.08805 1074.27 7.08805C1075.32 7.08817 1076.33 7.47031 1077.11 8.1613C1077.6 8.59616 1077.99 9.13451 1078.23 9.73258C1078.35 9.97548 1078.44 10.2299 1078.51 10.4933L1089.57 10.4933C1089.8 9.57415 1090.34 8.75933 1091.09 8.17692C1091.84 7.59449 1092.76 7.27698 1093.71 7.27555C1094.51 7.27369 1095.29 7.49722 1095.97 7.92009C1096.65 8.34295 1097.2 8.94869 1097.56 9.66813C1097.91 10.3876 1098.06 11.1923 1097.98 11.9904C1097.9 12.7884 1097.6 13.5478 1097.11 14.1828C1096.62 14.8178 1095.96 15.3026 1095.21 15.5822C1094.46 15.8617 1093.64 15.9254 1092.86 15.7648C1092.07 15.6042 1091.35 15.2261 1090.77 14.674C1090.19 14.1219 1089.77 13.4172 1089.57 12.6408L1078.51 12.6408C1078.25 13.6529 1077.63 14.5355 1076.76 15.1222C1076.33 15.417 1075.85 15.6269 1075.35 15.7463L1075.35 57.6086C1076.26 57.8442 1077.08 58.3796 1077.66 59.1291C1078.24 59.8785 1078.56 60.8 1078.56 61.7492C1078.56 62.5513 1078.34 63.3381 1077.92 64.0197C1077.49 64.7013 1076.89 65.251 1076.17 65.6056C1075.45 65.9603 1074.65 66.1053 1073.85 66.0256Z" fill="#8FDFF4" fill-opacity="0.3"/>
<path d="M1109.41 -32.2857L1109.41 26.2973L1109.39 26.3269C1110.44 26.5889 1111.36 27.2254 1111.97 28.1163C1112.58 29.0072 1112.84 30.0911 1112.71 31.1637C1112.58 32.2363 1112.06 33.2236 1111.25 33.9396C1110.44 34.6556 1109.4 35.0508 1108.32 35.0508C1107.24 35.0508 1106.2 34.6556 1105.39 33.9396C1104.58 33.2236 1104.06 32.2363 1103.93 31.1637C1103.8 30.0911 1104.06 29.0072 1104.67 28.1163C1105.29 27.2254 1106.2 26.5889 1107.25 26.3269L1107.25 -30.1159L1094.79 -30.1159L1094.79 -12.4038C1095.8 -12.1424 1096.68 -11.5209 1097.27 -10.6556C1097.85 -9.79037 1098.1 -8.74083 1097.97 -7.70374C1097.84 -6.66665 1097.34 -5.7132 1096.55 -5.02212C1095.77 -4.33103 1094.76 -3.94975 1093.72 -3.94975C1092.67 -3.94975 1091.66 -4.33103 1090.88 -5.02212C1090.1 -5.7132 1089.59 -6.66665 1089.46 -7.70374C1089.33 -8.74083 1089.58 -9.79037 1090.16 -10.6556C1090.75 -11.5209 1091.63 -12.1424 1092.64 -12.4038L1092.64 -32.2857L1109.41 -32.2857Z" fill="#8FDFF4" fill-opacity="0.3"/>
<path d="M1245.68 -55.6539C1246.48 -56.4595 1247.57 -56.912 1248.71 -56.912L1248.72 -56.8825C1249.82 -56.8365 1250.87 -56.3643 1251.64 -55.5645C1252.4 -54.7647 1252.83 -53.6993 1252.83 -52.591C1252.83 -51.4826 1252.4 -50.4172 1251.64 -49.6174C1250.87 -48.8176 1249.82 -48.3454 1248.72 -48.2994C1247.95 -48.3009 1247.2 -48.5128 1246.55 -48.912L1232.54 -34.8898L1232.54 31.4939C1233.59 31.7552 1234.5 32.3911 1235.12 33.2819C1235.73 34.1727 1235.99 35.2568 1235.86 36.3298C1235.73 37.4028 1235.21 38.3906 1234.4 39.1069C1233.59 39.8233 1232.55 40.2187 1231.47 40.2187C1230.39 40.2187 1229.35 39.8233 1228.54 39.1069C1227.73 38.3906 1227.21 37.4028 1227.08 36.3298C1226.95 35.2568 1227.21 34.1727 1227.83 33.2819C1228.44 32.3911 1229.35 31.7552 1230.4 31.4939L1230.4 -34.8898L1216.64 -48.6611C1215.73 -48.1111 1214.66 -47.9135 1213.61 -48.1055C1212.57 -48.2976 1211.63 -48.866 1210.97 -49.7036C1210.32 -50.5411 1209.99 -51.5897 1210.05 -52.6516C1210.12 -53.7134 1210.57 -54.7149 1211.32 -55.4671C1212.07 -56.2194 1213.07 -56.6702 1214.13 -56.7345C1215.19 -56.7988 1216.24 -56.4722 1217.08 -55.8164C1217.91 -55.1605 1218.48 -54.2207 1218.67 -53.1744C1218.87 -52.1281 1218.67 -51.0477 1218.12 -50.1371L1231.43 -36.853L1245.02 -50.4544C1244.63 -51.1076 1244.42 -51.8547 1244.42 -52.6168C1244.42 -53.7559 1244.87 -54.8484 1245.68 -55.6539Z" fill="#8FDFF4" fill-opacity="0.3"/>
<path d="M1019.57 6.70068C1020.32 6.1182 1021.24 5.80137 1022.19 5.8C1022.99 5.79812 1023.77 6.02129 1024.46 6.44415C1025.14 6.86702 1025.69 7.4726 1026.04 8.1921C1026.39 8.91159 1026.54 9.71614 1026.46 10.5143C1026.38 11.3125 1026.08 12.0723 1025.59 12.7073C1025.1 13.3424 1024.44 13.8272 1023.69 14.1068C1022.94 14.3864 1022.13 14.4494 1021.34 14.2888C1020.55 14.1282 1019.83 13.7503 1019.25 13.1982C1018.67 12.646 1018.25 11.9417 1018.05 11.1653L989.297 11.1653C989.036 12.1775 988.415 13.0597 987.551 13.6464C986.686 14.2332 985.638 14.4842 984.602 14.3525C983.566 14.2207 982.613 13.7153 981.923 12.9309C981.232 12.1465 980.851 11.1369 980.851 10.0915C980.851 9.04608 981.232 8.03654 981.923 7.25213C982.613 6.46771 983.566 5.96227 984.602 5.83054C985.638 5.69881 986.686 5.94985 987.551 6.53659C988.415 7.12332 989.036 8.00548 989.297 9.01771L1018.05 9.0177C1018.29 8.09823 1018.82 7.28316 1019.57 6.70068Z" fill="#8FDFF4" fill-opacity="0.3"/>
<path d="M1041.69 -27.59C1042.44 -28.1722 1043.36 -28.4895 1044.31 -28.4922C1045.11 -28.4941 1045.89 -28.2709 1046.58 -27.848C1047.26 -27.4252 1047.8 -26.8196 1048.16 -26.1001C1048.51 -25.3806 1048.66 -24.576 1048.58 -23.7779C1048.5 -22.9797 1048.2 -22.2199 1047.71 -21.5849C1047.22 -20.9498 1046.56 -20.4649 1045.81 -20.1854C1045.06 -19.9058 1044.24 -19.8428 1043.46 -20.0034C1042.67 -20.164 1041.95 -20.5419 1041.37 -21.094C1040.79 -21.6462 1040.37 -22.3505 1040.17 -23.1269L1022.37 -23.1269L1008.16 -37.3483L969.45 -37.3483L969.45 5.66279C970.497 5.92486 971.413 6.56132 972.024 7.45223C972.635 8.34314 972.899 9.42702 972.767 10.4996C972.636 11.5722 972.116 12.5595 971.308 13.2755C970.499 13.9915 969.457 14.3867 968.377 14.3867C967.297 14.3867 966.255 13.9915 965.446 13.2755C964.637 12.5595 964.118 11.5722 963.986 10.4996C963.854 9.42702 964.119 8.34314 964.73 7.45223C965.341 6.56132 966.257 5.92486 967.304 5.66279L967.304 -39.4959L1009.04 -39.4959L1023.25 -25.2745L1040.17 -25.2745C1040.41 -26.1933 1040.94 -27.0077 1041.69 -27.59Z" fill="#8FDFF4" fill-opacity="0.3"/>
<path d="M1151.53 29.1484C1150.45 29.1484 1149.41 28.753 1148.6 28.0371C1147.79 27.3212 1147.27 26.3341 1147.14 25.2617C1147.01 24.1891 1147.27 23.1048 1147.88 22.2139C1148.49 21.323 1149.41 20.6869 1150.46 20.4248L1150.46 -47.8633L1177.69 -75.125L1177.69 -115.59L1170.37 -122.803C1169.69 -122.385 1168.89 -122.144 1168.04 -122.144C1165.6 -122.144 1163.62 -124.126 1163.62 -126.571C1163.62 -129.017 1165.6 -130.999 1168.04 -130.999C1170.49 -130.999 1172.47 -129.017 1172.47 -126.571C1172.47 -125.75 1172.24 -124.982 1171.85 -124.322L1179.84 -116.476L1179.84 -74.2393L1152.6 -46.9775L1152.6 20.4248C1153.65 20.6869 1154.57 21.323 1155.18 22.2139C1155.79 23.1048 1156.05 24.1892 1155.92 25.2617C1155.79 26.3342 1155.27 27.3212 1154.46 28.0371C1153.65 28.753 1152.61 29.1484 1151.53 29.1484Z" fill="#8FDFF4" fill-opacity="0.3"/>
<path d="M1063.59 -46.431C1064.38 -47.1195 1065.39 -47.4968 1066.43 -47.4921C1067.47 -47.495 1068.48 -47.1164 1069.27 -46.4273C1070.05 -45.7383 1070.55 -44.7864 1070.69 -43.7508C1070.82 -42.7152 1070.57 -41.6672 1069.98 -40.804C1069.39 -39.9409 1068.51 -39.3221 1067.5 -39.064L1067.5 -8.50314L1053.6 5.42306L1053.6 25.8585C1054.61 26.1198 1055.49 26.7414 1056.07 27.6066C1056.66 28.4719 1056.91 29.5214 1056.78 30.5585C1056.65 31.5956 1056.14 32.5491 1055.36 33.2401C1054.58 33.9312 1053.57 34.3125 1052.52 34.3125C1051.48 34.3125 1050.47 33.9312 1049.69 33.2401C1048.9 32.5491 1048.4 31.5956 1048.27 30.5585C1048.13 29.5214 1048.38 28.4719 1048.97 27.6066C1049.56 26.7414 1050.44 26.1198 1051.45 25.8585L1051.45 4.53006L1065.35 -9.38876L1065.35 -39.064C1064.34 -39.3222 1063.46 -39.9416 1062.88 -40.8055C1062.29 -41.6695 1062.04 -42.7183 1062.17 -43.7545C1062.3 -44.7907 1062.81 -45.7426 1063.59 -46.431Z" fill="#8FDFF4" fill-opacity="0.3"/>
<path d="M1173.78 -19.9327L1187.68 -6.0065L1187.68 12.5913C1188.69 12.8518 1189.57 13.472 1190.16 14.3357C1190.74 15.1994 1190.99 16.2473 1190.86 17.2828C1190.73 18.3183 1190.23 19.2703 1189.45 19.9604C1188.66 20.6505 1187.66 21.0312 1186.61 21.0312C1185.57 21.0312 1184.56 20.6505 1183.78 19.9604C1183 19.2703 1182.5 18.3183 1182.36 17.2828C1182.23 16.2473 1182.48 15.1994 1183.07 14.3357C1183.65 13.472 1184.53 12.8518 1185.54 12.5913L1185.54 -5.1209L1171.63 -19.0471L1171.63 -40.3681C1170.62 -40.6295 1169.74 -41.251 1169.15 -42.1163C1168.57 -42.9815 1168.32 -44.0311 1168.45 -45.0682C1168.58 -46.1052 1169.08 -47.0587 1169.87 -47.7498C1170.65 -48.4409 1171.66 -48.8221 1172.7 -48.8221C1173.75 -48.8221 1174.76 -48.4409 1175.54 -47.7498C1176.33 -47.0587 1176.83 -46.1052 1176.96 -45.0682C1177.09 -44.0311 1176.84 -42.9815 1176.26 -42.1163C1175.67 -41.251 1174.79 -40.6295 1173.78 -40.3681L1173.78 -19.9327Z" fill="#8FDFF4" fill-opacity="0.3"/>
<path d="M1210.35 -13.7945C1211.12 -14.4842 1212.13 -14.8668 1213.17 -14.871C1214.21 -14.8685 1215.21 -14.4872 1215.99 -13.7982C1216.77 -13.1091 1217.27 -12.1595 1217.41 -11.1265C1217.54 -10.0935 1217.29 -9.04778 1216.71 -8.18459C1216.13 -7.32139 1215.25 -6.6997 1214.24 -6.43557L1214.24 26.177L1200.23 40.0958L1200.23 60.546C1201.25 60.8073 1202.13 61.4289 1202.71 62.2941C1203.3 63.1594 1203.55 64.2089 1203.42 65.246C1203.29 66.2831 1202.78 67.2366 1202 67.9276C1201.21 68.6187 1200.21 69 1199.16 69C1198.12 69 1197.11 68.6187 1196.33 67.9276C1195.54 67.2366 1195.04 66.2831 1194.91 65.246C1194.77 64.2089 1195.02 63.1594 1195.61 62.2941C1196.2 61.4289 1197.08 60.8073 1198.09 60.546L1198.09 39.225L1212.1 25.2988L1212.1 -6.43557C1211.09 -6.69952 1210.22 -7.32062 1209.63 -8.18305C1209.05 -9.04547 1208.8 -10.0903 1208.93 -11.1228C1209.07 -12.1553 1209.57 -13.1049 1210.35 -13.7945Z" fill="#8FDFF4" fill-opacity="0.3"/>
<path d="M1266.64 -14.0304L1247.57 -0.104166L1247.57 18.4936C1246.56 18.7541 1245.68 19.3744 1245.09 20.2381C1244.51 21.1018 1244.26 22.1496 1244.39 23.1851C1244.52 24.2206 1245.02 25.1727 1245.81 25.8628C1246.59 26.5528 1247.6 26.9336 1248.64 26.9336C1249.68 26.9336 1250.69 26.5528 1251.47 25.8628C1252.25 25.1727 1252.76 24.2206 1252.89 23.1851C1253.02 22.1496 1252.77 21.1018 1252.18 20.2381C1251.6 19.3744 1250.72 18.7541 1249.71 18.4936L1249.71 0.781441L1268.78 -13.1448L1268.78 -34.4658C1269.79 -34.7271 1270.67 -35.3487 1271.26 -36.2139C1271.85 -37.0792 1272.1 -38.1287 1271.97 -39.1658C1271.83 -40.2029 1271.33 -41.1563 1270.55 -41.8474C1269.76 -42.5385 1268.75 -42.9198 1267.71 -42.9198C1266.66 -42.9198 1265.66 -42.5385 1264.87 -41.8474C1264.09 -41.1563 1263.58 -40.2029 1263.45 -39.1658C1263.32 -38.1287 1263.57 -37.0792 1264.16 -36.2139C1264.74 -35.3487 1265.63 -34.7271 1266.64 -34.4658L1266.64 -14.0304Z" fill="#8FDFF4" fill-opacity="0.3"/>
<path fill-rule="evenodd" clip-rule="evenodd" d="M443.239 66.0256C442.44 65.9458 441.678 65.6436 441.041 65.1535C440.405 64.6635 439.919 64.0048 439.639 63.2531C439.359 62.5014 439.295 61.6863 439.456 60.9006C439.617 60.1147 439.997 59.3897 440.55 58.8078C441.103 58.226 441.809 57.8101 442.587 57.6086L442.587 15.7033C441.79 15.481 441.069 15.033 440.516 14.4064C440.201 14.0496 439.95 13.6462 439.771 13.2141C439.424 12.4794 439.289 11.6577 439.393 10.843C439.525 9.80591 440.032 8.85241 440.818 8.16132C441.604 7.47023 442.616 7.08808 443.663 7.08808C444.711 7.08819 445.722 7.47033 446.508 8.16132C447 8.59427 447.383 9.12988 447.633 9.7248C447.75 9.96998 447.843 10.2272 447.912 10.4934L459.006 10.4934C459.242 9.57393 459.778 8.7594 460.529 8.17695C461.28 7.59447 462.204 7.27695 463.155 7.27558C463.959 7.27377 464.747 7.49741 465.43 7.92011C466.113 8.34298 466.664 8.94867 467.02 9.66816C467.375 10.3876 467.521 11.1924 467.441 11.9904C467.361 12.7885 467.058 13.5478 466.567 14.1828C466.075 14.8179 465.416 15.3027 464.662 15.5822C463.909 15.8617 463.092 15.9254 462.305 15.7648C461.517 15.6042 460.79 15.2262 460.207 14.674C459.624 14.1219 459.208 13.4172 459.006 12.6408L447.912 12.6408C447.65 13.653 447.027 14.5355 446.16 15.1223C445.725 15.417 445.242 15.627 444.738 15.7463L444.738 57.6086C445.66 57.8443 446.477 58.3796 447.061 59.1291C447.644 59.8785 447.962 60.8001 447.963 61.7492C447.965 62.5514 447.741 63.3381 447.318 64.0197C446.894 64.7012 446.287 65.2511 445.567 65.6057C444.846 65.9602 444.039 66.1053 443.239 66.0256Z" fill="#8FDFF4" fill-opacity="0.3"/>
<path d="M478.906 -32.2857L478.906 26.2973L478.892 26.3269C479.942 26.5889 480.861 27.2254 481.474 28.1163C482.087 29.0072 482.352 30.0911 482.22 31.1637C482.087 32.2363 481.567 33.2236 480.755 33.9396C479.944 34.6556 478.899 35.0508 477.816 35.0508C476.733 35.0508 475.687 34.6556 474.876 33.9396C474.064 33.2236 473.544 32.2363 473.411 31.1637C473.279 30.0911 473.544 29.0072 474.157 28.1163C474.77 27.2254 475.689 26.5889 476.739 26.3269L476.739 -30.1159L464.241 -30.1159L464.241 -12.4038C465.255 -12.1424 466.139 -11.5209 466.727 -10.6556C467.315 -9.79037 467.567 -8.74083 467.435 -7.70374C467.303 -6.66665 466.796 -5.7132 466.01 -5.02212C465.224 -4.33103 464.212 -3.94975 463.165 -3.94975C462.117 -3.94975 461.105 -4.33103 460.319 -5.02212C459.533 -5.7132 459.027 -6.66665 458.895 -7.70374C458.763 -8.74083 459.014 -9.79037 459.602 -10.6556C460.19 -11.5209 461.074 -12.1424 462.089 -12.4038L462.089 -32.2857L478.906 -32.2857Z" fill="#8FDFF4" fill-opacity="0.3"/>
<path d="M615.595 -55.6539C616.402 -56.4595 617.497 -56.912 618.638 -56.912L618.646 -56.8825C619.755 -56.8365 620.804 -56.3643 621.573 -55.5645C622.342 -54.7647 622.771 -53.6993 622.771 -52.591C622.771 -51.4826 622.342 -50.4172 621.573 -49.6174C620.804 -48.8176 619.755 -48.3454 618.646 -48.2994C617.878 -48.3009 617.126 -48.5128 616.471 -48.912L602.419 -34.8898L602.419 31.4939C603.471 31.7552 604.39 32.3911 605.004 33.2819C605.617 34.1727 605.883 35.2568 605.751 36.3298C605.62 37.4028 605.099 38.3906 604.288 39.1069C603.476 39.8233 602.43 40.2187 601.347 40.2187C600.264 40.2187 599.218 39.8233 598.407 39.1069C597.595 38.3906 597.075 37.4028 596.943 36.3298C596.811 35.2568 597.077 34.1727 597.691 33.2819C598.304 32.3911 599.224 31.7552 600.275 31.4939L600.275 -34.8898L586.474 -48.6611C585.562 -48.1111 584.479 -47.9135 583.431 -48.1055C582.382 -48.2976 581.44 -48.866 580.783 -49.7036C580.126 -50.5411 579.799 -51.5897 579.863 -52.6516C579.927 -53.7134 580.379 -54.7149 581.133 -55.4671C581.887 -56.2194 582.891 -56.6702 583.955 -56.7345C585.019 -56.7988 586.07 -56.4722 586.909 -55.8164C587.748 -55.1605 588.318 -54.2207 588.51 -53.1744C588.703 -52.1281 588.505 -51.0477 587.954 -50.1371L601.31 -36.853L614.94 -50.4544C614.547 -51.1076 614.337 -51.8547 614.334 -52.6168C614.334 -53.7559 614.787 -54.8484 615.595 -55.6539Z" fill="#8FDFF4" fill-opacity="0.3"/>
<path d="M388.791 6.70068C389.542 6.1182 390.465 5.80137 391.417 5.8C392.221 5.79812 393.009 6.02129 393.692 6.44415C394.375 6.86702 394.925 7.4726 395.281 8.1921C395.636 8.91159 395.782 9.71614 395.702 10.5143C395.622 11.3125 395.32 12.0723 394.829 12.7073C394.337 13.3424 393.678 13.8272 392.924 14.1068C392.171 14.3864 391.354 14.4494 390.566 14.2888C389.779 14.1282 389.052 13.7503 388.469 13.1982C387.886 12.646 387.47 11.9417 387.268 11.1653L358.425 11.1653C358.163 12.1775 357.54 13.0597 356.673 13.6464C355.806 14.2332 354.754 14.4842 353.715 14.3525C352.675 14.2207 351.72 13.7153 351.027 12.9309C350.335 12.1465 349.953 11.1369 349.953 10.0915C349.953 9.04608 350.335 8.03654 351.027 7.25213C351.72 6.46771 352.675 5.96227 353.715 5.83054C354.754 5.69881 355.806 5.94985 356.673 6.53659C357.54 7.12332 358.163 8.00548 358.425 9.01771L387.268 9.0177C387.504 8.09823 388.04 7.28316 388.791 6.70068Z" fill="#8FDFF4" fill-opacity="0.3"/>
<path d="M410.979 -27.59C411.73 -28.1722 412.653 -28.4895 413.604 -28.4922C414.408 -28.4941 415.196 -28.2709 415.879 -27.848C416.562 -27.4252 417.113 -26.8196 417.468 -26.1001C417.824 -25.3806 417.97 -24.576 417.89 -23.7779C417.81 -22.9797 417.507 -22.2199 417.016 -21.5849C416.525 -20.9498 415.865 -20.4649 415.112 -20.1854C414.358 -19.9058 413.541 -19.8428 412.754 -20.0034C411.966 -20.164 411.24 -20.5419 410.657 -21.094C410.073 -21.6462 409.657 -22.3505 409.455 -23.1269L391.595 -23.1269L377.343 -37.3483L338.516 -37.3483L338.516 5.66279C339.567 5.92486 340.485 6.56132 341.098 7.45223C341.711 8.34314 341.976 9.42702 341.844 10.4996C341.712 11.5722 341.191 12.5595 340.38 13.2755C339.568 13.9915 338.523 14.3867 337.44 14.3867C336.357 14.3867 335.311 13.9915 334.5 13.2755C333.689 12.5595 333.168 11.5722 333.036 10.4996C332.903 9.42702 333.169 8.34314 333.782 7.45223C334.395 6.56132 335.313 5.92486 336.364 5.66279L336.364 -39.4959L378.231 -39.4959L392.482 -25.2745L409.455 -25.2745C409.693 -26.1933 410.229 -27.0077 410.979 -27.59Z" fill="#8FDFF4" fill-opacity="0.3"/>
<path d="M521.158 29.1484C520.075 29.1484 519.029 28.7531 518.218 28.0371C517.407 27.3212 516.886 26.334 516.754 25.2617C516.622 24.1891 516.887 23.1048 517.5 22.2139C518.113 21.323 519.031 20.6869 520.082 20.4248L520.082 -47.8633L547.401 -75.125L547.401 -115.59L540.052 -122.803C539.374 -122.385 538.576 -122.144 537.721 -122.144C535.27 -122.144 533.283 -124.126 533.283 -126.571C533.283 -129.017 535.27 -130.999 537.721 -130.999C540.171 -130.999 542.158 -129.017 542.158 -126.571C542.158 -125.75 541.934 -124.981 541.543 -124.321L549.554 -116.476L549.554 -74.2393L522.234 -46.9775L522.234 20.4248C523.285 20.6869 524.203 21.3231 524.816 22.2139C525.429 23.1048 525.695 24.1891 525.563 25.2617C525.43 26.3342 524.909 27.3212 524.098 28.0371C523.286 28.753 522.241 29.1484 521.158 29.1484Z" fill="#8FDFF4" fill-opacity="0.3"/>
<path d="M432.95 -46.431C433.737 -47.1195 434.749 -47.4968 435.796 -47.4921C436.842 -47.495 437.853 -47.1164 438.639 -46.4273C439.425 -45.7383 439.932 -44.7864 440.063 -43.7508C440.195 -42.7152 439.943 -41.6672 439.355 -40.804C438.766 -39.9409 437.882 -39.3221 436.868 -39.064L436.868 -8.50314L422.92 5.42306L422.92 25.8585C423.935 26.1198 424.819 26.7414 425.407 27.6066C425.995 28.4719 426.246 29.5214 426.114 30.5585C425.982 31.5956 425.476 32.5491 424.689 33.2401C423.903 33.9312 422.892 34.3125 421.844 34.3125C420.796 34.3125 419.785 33.9312 418.999 33.2401C418.213 32.5491 417.706 31.5956 417.574 30.5585C417.442 29.5214 417.694 28.4719 418.282 27.6066C418.87 26.7414 419.754 26.1198 420.768 25.8585L420.768 4.53006L434.716 -9.38876L434.716 -39.064C433.702 -39.3222 432.817 -39.9416 432.229 -40.8055C431.64 -41.6695 431.389 -42.7183 431.522 -43.7545C431.654 -44.7907 432.162 -45.7426 432.95 -46.431Z" fill="#8FDFF4" fill-opacity="0.3"/>
<path d="M543.475 -19.9327L557.423 -6.0065L557.423 12.5913C558.436 12.8518 559.319 13.472 559.906 14.3357C560.493 15.1994 560.745 16.2473 560.613 17.2828C560.482 18.3183 559.976 19.2703 559.191 19.9604C558.407 20.6505 557.397 21.0312 556.351 21.0312C555.305 21.0312 554.294 20.6505 553.51 19.9604C552.725 19.2703 552.219 18.3183 552.088 17.2828C551.956 16.2473 552.208 15.1994 552.795 14.3357C553.382 13.472 554.265 12.8518 555.278 12.5913L555.278 -5.1209L541.323 -19.0471L541.323 -40.3681C540.308 -40.6295 539.424 -41.251 538.836 -42.1163C538.248 -42.9815 537.997 -44.0311 538.129 -45.0682C538.261 -46.1052 538.767 -47.0587 539.553 -47.7498C540.339 -48.4409 541.351 -48.8221 542.399 -48.8221C543.446 -48.8221 544.458 -48.4409 545.244 -47.7498C546.03 -47.0587 546.537 -46.1052 546.669 -45.0682C546.801 -44.0311 546.549 -42.9815 545.961 -42.1163C545.373 -41.251 544.489 -40.6295 543.475 -40.3681L543.475 -19.9327Z" fill="#8FDFF4" fill-opacity="0.3"/>
<path d="M580.156 -13.7945C580.937 -14.4842 581.943 -14.8668 582.986 -14.871C584.029 -14.8685 585.036 -14.4872 585.819 -13.7982C586.601 -13.1091 587.106 -12.1595 587.238 -11.1265C587.37 -10.0935 587.121 -9.04778 586.537 -8.18459C585.953 -7.32139 585.075 -6.6997 584.065 -6.43557L584.065 26.177L570.014 40.0958L570.014 60.546C571.028 60.8073 571.912 61.4289 572.5 62.2941C573.088 63.1594 573.34 64.2089 573.208 65.246C573.076 66.2831 572.569 67.2366 571.783 67.9276C570.997 68.6187 569.985 69 568.938 69C567.89 69 566.878 68.6187 566.092 67.9276C565.306 67.2366 564.8 66.2831 564.668 65.246C564.536 64.2089 564.787 63.1594 565.375 62.2941C565.963 61.4289 566.847 60.8073 567.861 60.546L567.861 39.225L581.913 25.2988L581.913 -6.43557C580.904 -6.69952 580.026 -7.32062 579.442 -8.18305C578.859 -9.04547 578.609 -10.0903 578.74 -11.1228C578.872 -12.1553 579.375 -13.1049 580.156 -13.7945Z" fill="#8FDFF4" fill-opacity="0.3"/>
<path d="M636.619 -14.0304L617.494 -0.104166L617.494 18.4936C616.481 18.7541 615.598 19.3744 615.011 20.2381C614.424 21.1018 614.172 22.1496 614.304 23.1851C614.435 24.2206 614.941 25.1727 615.726 25.8628C616.51 26.5528 617.52 26.9336 618.566 26.9336C619.612 26.9336 620.623 26.5528 621.407 25.8628C622.192 25.1727 622.698 24.2206 622.829 23.1851C622.961 22.1496 622.709 21.1018 622.122 20.2381C621.535 19.3744 620.652 18.7541 619.639 18.4936L619.639 0.781441L638.771 -13.1448L638.771 -34.4658C639.786 -34.7271 640.67 -35.3487 641.258 -36.2139C641.846 -37.0792 642.097 -38.1287 641.965 -39.1658C641.833 -40.2029 641.327 -41.1563 640.541 -41.8474C639.755 -42.5385 638.743 -42.9198 637.695 -42.9198C636.648 -42.9198 635.636 -42.5385 634.85 -41.8474C634.064 -41.1563 633.557 -40.2029 633.425 -39.1658C633.293 -38.1287 633.545 -37.0792 634.133 -36.2139C634.721 -35.3487 635.605 -34.7271 636.619 -34.4658L636.619 -14.0304Z" fill="#8FDFF4" fill-opacity="0.3"/>
<path fill-rule="evenodd" clip-rule="evenodd" d="M756.239 66.0256C755.44 65.9458 754.678 65.6436 754.041 65.1535C753.405 64.6635 752.919 64.0048 752.639 63.2531C752.359 62.5014 752.295 61.6863 752.456 60.9006C752.617 60.1147 752.997 59.3897 753.55 58.8078C754.103 58.226 754.809 57.8101 755.587 57.6086L755.587 15.7033C754.79 15.481 754.069 15.033 753.516 14.4064C753.201 14.0496 752.95 13.6462 752.771 13.2141C752.424 12.4794 752.289 11.6577 752.393 10.843C752.525 9.80591 753.032 8.85241 753.818 8.16132C754.604 7.47023 755.616 7.08808 756.663 7.08808C757.711 7.08819 758.722 7.47033 759.508 8.16132C760 8.59427 760.383 9.12988 760.633 9.7248C760.75 9.96998 760.843 10.2272 760.912 10.4934L772.006 10.4934C772.242 9.57393 772.778 8.7594 773.529 8.17695C774.28 7.59447 775.204 7.27695 776.155 7.27558C776.959 7.27377 777.747 7.49741 778.43 7.92011C779.113 8.34298 779.664 8.94867 780.02 9.66816C780.375 10.3876 780.521 11.1924 780.441 11.9904C780.361 12.7885 780.058 13.5478 779.567 14.1828C779.075 14.8179 778.416 15.3027 777.662 15.5822C776.909 15.8617 776.092 15.9254 775.305 15.7648C774.517 15.6042 773.79 15.2262 773.207 14.674C772.624 14.1219 772.208 13.4172 772.006 12.6408L760.912 12.6408C760.65 13.653 760.027 14.5355 759.16 15.1223C758.725 15.417 758.242 15.627 757.738 15.7463L757.738 57.6086C758.66 57.8443 759.477 58.3796 760.061 59.1291C760.644 59.8785 760.962 60.8001 760.963 61.7492C760.965 62.5514 760.741 63.3381 760.318 64.0197C759.894 64.7012 759.287 65.2511 758.567 65.6057C757.846 65.9602 757.039 66.1053 756.239 66.0256Z" fill="#8FDFF4" fill-opacity="0.3"/>
<path d="M791.906 -32.2857L791.906 26.2973L791.892 26.3269C792.942 26.5889 793.861 27.2254 794.474 28.1163C795.087 29.0072 795.352 30.0911 795.22 31.1637C795.087 32.2363 794.567 33.2236 793.755 33.9396C792.944 34.6556 791.899 35.0508 790.816 35.0508C789.733 35.0508 788.687 34.6556 787.876 33.9396C787.064 33.2236 786.544 32.2363 786.411 31.1637C786.279 30.0911 786.544 29.0072 787.157 28.1163C787.77 27.2254 788.689 26.5889 789.739 26.3269L789.739 -30.1159L777.241 -30.1159L777.241 -12.4038C778.255 -12.1424 779.139 -11.5209 779.727 -10.6556C780.315 -9.79037 780.567 -8.74083 780.435 -7.70374C780.303 -6.66665 779.796 -5.7132 779.01 -5.02212C778.224 -4.33103 777.212 -3.94975 776.165 -3.94975C775.117 -3.94975 774.105 -4.33103 773.319 -5.02212C772.533 -5.7132 772.027 -6.66665 771.895 -7.70374C771.763 -8.74083 772.014 -9.79037 772.602 -10.6556C773.19 -11.5209 774.074 -12.1424 775.089 -12.4038L775.089 -32.2857L791.906 -32.2857Z" fill="#8FDFF4" fill-opacity="0.3"/>
<path d="M928.595 -55.6539C929.402 -56.4595 930.497 -56.912 931.638 -56.912L931.646 -56.8825C932.755 -56.8365 933.804 -56.3643 934.573 -55.5645C935.342 -54.7647 935.771 -53.6993 935.771 -52.591C935.771 -51.4826 935.342 -50.4172 934.573 -49.6174C933.804 -48.8176 932.755 -48.3454 931.646 -48.2994C930.878 -48.3009 930.126 -48.5128 929.471 -48.912L915.419 -34.8898L915.419 31.4939C916.471 31.7552 917.39 32.3911 918.004 33.2819C918.617 34.1727 918.883 35.2568 918.751 36.3298C918.62 37.4028 918.099 38.3906 917.288 39.1069C916.476 39.8233 915.43 40.2187 914.347 40.2187C913.264 40.2187 912.218 39.8233 911.407 39.1069C910.595 38.3906 910.075 37.4028 909.943 36.3298C909.811 35.2568 910.077 34.1727 910.691 33.2819C911.304 32.3911 912.224 31.7552 913.275 31.4939L913.275 -34.8898L899.474 -48.6611C898.562 -48.1111 897.479 -47.9135 896.431 -48.1055C895.382 -48.2976 894.44 -48.866 893.783 -49.7036C893.126 -50.5411 892.799 -51.5897 892.863 -52.6516C892.927 -53.7134 893.379 -54.7149 894.133 -55.4671C894.887 -56.2194 895.891 -56.6702 896.955 -56.7345C898.019 -56.7988 899.07 -56.4722 899.909 -55.8164C900.748 -55.1605 901.318 -54.2207 901.51 -53.1744C901.703 -52.1281 901.505 -51.0477 900.954 -50.1371L914.31 -36.853L927.94 -50.4544C927.547 -51.1076 927.337 -51.8547 927.334 -52.6168C927.334 -53.7559 927.787 -54.8484 928.595 -55.6539Z" fill="#8FDFF4" fill-opacity="0.3"/>
<path d="M701.791 6.70068C702.542 6.1182 703.465 5.80137 704.417 5.8C705.221 5.79812 706.009 6.02129 706.692 6.44415C707.375 6.86702 707.925 7.4726 708.281 8.1921C708.636 8.91159 708.782 9.71614 708.702 10.5143C708.622 11.3125 708.32 12.0723 707.829 12.7073C707.337 13.3424 706.678 13.8272 705.924 14.1068C705.171 14.3864 704.354 14.4494 703.566 14.2888C702.779 14.1282 702.052 13.7503 701.469 13.1982C700.886 12.646 700.47 11.9417 700.268 11.1653L671.425 11.1653C671.163 12.1775 670.54 13.0597 669.673 13.6464C668.806 14.2332 667.754 14.4842 666.715 14.3525C665.675 14.2207 664.72 13.7153 664.027 12.9309C663.335 12.1465 662.953 11.1369 662.953 10.0915C662.953 9.04608 663.335 8.03654 664.027 7.25213C664.72 6.46771 665.675 5.96227 666.715 5.83054C667.754 5.69881 668.806 5.94985 669.673 6.53659C670.54 7.12332 671.163 8.00548 671.425 9.01771L700.268 9.0177C700.504 8.09823 701.04 7.28316 701.791 6.70068Z" fill="#8FDFF4" fill-opacity="0.3"/>
<path d="M723.979 -27.59C724.73 -28.1722 725.653 -28.4895 726.604 -28.4922C727.408 -28.4941 728.196 -28.2709 728.879 -27.848C729.562 -27.4252 730.113 -26.8196 730.468 -26.1001C730.824 -25.3806 730.97 -24.576 730.89 -23.7779C730.81 -22.9797 730.507 -22.2199 730.016 -21.5849C729.525 -20.9498 728.865 -20.4649 728.112 -20.1854C727.358 -19.9058 726.541 -19.8428 725.754 -20.0034C724.966 -20.164 724.24 -20.5419 723.657 -21.094C723.073 -21.6462 722.657 -22.3505 722.455 -23.1269L704.595 -23.1269L690.343 -37.3483L651.516 -37.3483L651.516 5.66279C652.567 5.92486 653.485 6.56132 654.098 7.45223C654.711 8.34314 654.976 9.42702 654.844 10.4996C654.712 11.5722 654.191 12.5595 653.38 13.2755C652.568 13.9915 651.523 14.3867 650.44 14.3867C649.357 14.3867 648.311 13.9915 647.5 13.2755C646.689 12.5595 646.168 11.5722 646.036 10.4996C645.903 9.42702 646.169 8.34314 646.782 7.45223C647.395 6.56132 648.313 5.92486 649.364 5.66279L649.364 -39.4959L691.231 -39.4959L705.482 -25.2745L722.455 -25.2745C722.693 -26.1933 723.229 -27.0077 723.979 -27.59Z" fill="#8FDFF4" fill-opacity="0.3"/>
<path d="M834.158 29.1484C833.075 29.1484 832.029 28.7531 831.218 28.0371C830.407 27.3212 829.886 26.334 829.754 25.2617C829.622 24.1891 829.887 23.1048 830.5 22.2139C831.113 21.323 832.031 20.6869 833.082 20.4248L833.082 -47.8633L860.401 -75.125L860.401 -115.59L853.052 -122.803C852.374 -122.385 851.576 -122.144 850.721 -122.144C848.27 -122.144 846.283 -124.126 846.283 -126.571C846.283 -129.017 848.27 -130.999 850.721 -130.999C853.171 -130.999 855.158 -129.017 855.158 -126.571C855.158 -125.75 854.934 -124.981 854.543 -124.321L862.554 -116.476L862.554 -74.2393L835.234 -46.9775L835.234 20.4248C836.285 20.6869 837.203 21.3231 837.816 22.2139C838.429 23.1048 838.695 24.1891 838.563 25.2617C838.43 26.3342 837.909 27.3212 837.098 28.0371C836.286 28.753 835.241 29.1484 834.158 29.1484Z" fill="#8FDFF4" fill-opacity="0.3"/>
<path d="M745.95 -46.431C746.737 -47.1195 747.749 -47.4968 748.796 -47.4921C749.842 -47.495 750.853 -47.1164 751.639 -46.4273C752.425 -45.7383 752.932 -44.7864 753.063 -43.7508C753.195 -42.7152 752.943 -41.6672 752.355 -40.804C751.766 -39.9409 750.882 -39.3221 749.868 -39.064L749.868 -8.50314L735.92 5.42306L735.92 25.8585C736.935 26.1198 737.819 26.7414 738.407 27.6066C738.995 28.4719 739.246 29.5214 739.114 30.5585C738.982 31.5956 738.476 32.5491 737.689 33.2401C736.903 33.9312 735.892 34.3125 734.844 34.3125C733.796 34.3125 732.785 33.9312 731.999 33.2401C731.213 32.5491 730.706 31.5956 730.574 30.5585C730.442 29.5214 730.694 28.4719 731.282 27.6066C731.87 26.7414 732.754 26.1198 733.768 25.8585L733.768 4.53006L747.716 -9.38876L747.716 -39.064C746.702 -39.3222 745.817 -39.9416 745.229 -40.8055C744.64 -41.6695 744.389 -42.7183 744.522 -43.7545C744.654 -44.7907 745.162 -45.7426 745.95 -46.431Z" fill="#8FDFF4" fill-opacity="0.3"/>
<path d="M856.475 -19.9327L870.423 -6.0065L870.423 12.5913C871.436 12.8518 872.319 13.472 872.906 14.3357C873.493 15.1994 873.745 16.2473 873.613 17.2828C873.482 18.3183 872.976 19.2703 872.191 19.9604C871.407 20.6505 870.397 21.0312 869.351 21.0312C868.305 21.0312 867.294 20.6505 866.51 19.9604C865.725 19.2703 865.219 18.3183 865.088 17.2828C864.956 16.2473 865.208 15.1994 865.795 14.3357C866.382 13.472 867.265 12.8518 868.278 12.5913L868.278 -5.1209L854.323 -19.0471L854.323 -40.3681C853.308 -40.6295 852.424 -41.251 851.836 -42.1163C851.248 -42.9815 850.997 -44.0311 851.129 -45.0682C851.261 -46.1052 851.767 -47.0587 852.553 -47.7498C853.339 -48.4409 854.351 -48.8221 855.399 -48.8221C856.446 -48.8221 857.458 -48.4409 858.244 -47.7498C859.03 -47.0587 859.537 -46.1052 859.669 -45.0682C859.801 -44.0311 859.549 -42.9815 858.961 -42.1163C858.373 -41.251 857.489 -40.6295 856.475 -40.3681L856.475 -19.9327Z" fill="#8FDFF4" fill-opacity="0.3"/>
<path d="M893.156 -13.7945C893.937 -14.4842 894.943 -14.8668 895.986 -14.871C897.029 -14.8685 898.036 -14.4872 898.819 -13.7982C899.601 -13.1091 900.106 -12.1595 900.238 -11.1265C900.37 -10.0935 900.121 -9.04778 899.537 -8.18459C898.953 -7.32139 898.075 -6.6997 897.065 -6.43557L897.065 26.177L883.014 40.0958L883.014 60.546C884.028 60.8073 884.912 61.4289 885.5 62.2941C886.088 63.1594 886.34 64.2089 886.208 65.246C886.076 66.2831 885.569 67.2366 884.783 67.9276C883.997 68.6187 882.985 69 881.938 69C880.89 69 879.878 68.6187 879.092 67.9276C878.306 67.2366 877.8 66.2831 877.668 65.246C877.536 64.2089 877.787 63.1594 878.375 62.2941C878.963 61.4289 879.847 60.8073 880.861 60.546L880.861 39.225L894.913 25.2988L894.913 -6.43557C893.904 -6.69952 893.026 -7.32062 892.442 -8.18305C891.859 -9.04547 891.609 -10.0903 891.74 -11.1228C891.872 -12.1553 892.375 -13.1049 893.156 -13.7945Z" fill="#8FDFF4" fill-opacity="0.3"/>
<path d="M949.619 -14.0304L930.494 -0.104166L930.494 18.4936C929.481 18.7541 928.598 19.3744 928.011 20.2381C927.424 21.1018 927.172 22.1496 927.304 23.1851C927.435 24.2206 927.941 25.1727 928.726 25.8628C929.51 26.5528 930.52 26.9336 931.566 26.9336C932.612 26.9336 933.623 26.5528 934.407 25.8628C935.192 25.1727 935.698 24.2206 935.829 23.1851C935.961 22.1496 935.709 21.1018 935.122 20.2381C934.535 19.3744 933.652 18.7541 932.639 18.4936L932.639 0.781441L951.771 -13.1448L951.771 -34.4658C952.786 -34.7271 953.67 -35.3487 954.258 -36.2139C954.846 -37.0792 955.097 -38.1287 954.965 -39.1658C954.833 -40.2029 954.327 -41.1563 953.541 -41.8474C952.755 -42.5385 951.743 -42.9198 950.695 -42.9198C949.648 -42.9198 948.636 -42.5385 947.85 -41.8474C947.064 -41.1563 946.557 -40.2029 946.425 -39.1658C946.293 -38.1287 946.545 -37.0792 947.133 -36.2139C947.721 -35.3487 948.605 -34.7271 949.619 -34.4658L949.619 -14.0304Z" fill="#8FDFF4" fill-opacity="0.3"/>
<path fill-rule="evenodd" clip-rule="evenodd" d="M125.851 66.0256C125.053 65.9458 124.295 65.6435 123.66 65.1535C123.026 64.6634 122.541 64.0049 122.262 63.2531C121.983 62.5013 121.92 61.6863 122.08 60.9006C122.241 60.1148 122.618 59.3896 123.169 58.8078C123.721 58.2259 124.425 57.8101 125.2 57.6086L125.2 15.7033C124.406 15.481 123.686 15.0329 123.135 14.4064C122.823 14.0519 122.576 13.6508 122.397 13.2218C122.048 12.4852 121.913 11.6606 122.017 10.8429C122.148 9.80587 122.653 8.85238 123.437 8.16129C124.22 7.4702 125.229 7.08805 126.274 7.08805C127.318 7.08817 128.326 7.47031 129.11 8.1613C129.603 8.59616 129.986 9.13451 130.235 9.73258C130.349 9.97548 130.442 10.2299 130.51 10.4933L141.57 10.4933C141.805 9.57415 142.339 8.75933 143.087 8.17692C143.836 7.59449 144.757 7.27698 145.705 7.27555C146.507 7.27369 147.293 7.49722 147.974 7.92009C148.655 8.34295 149.204 8.94869 149.558 9.66813C149.912 10.3876 150.057 11.1923 149.978 11.9904C149.898 12.7884 149.596 13.5478 149.107 14.1828C148.617 14.8178 147.959 15.3026 147.208 15.5822C146.457 15.8617 145.643 15.9254 144.858 15.7648C144.073 15.6042 143.348 15.2261 142.767 14.674C142.186 14.1219 141.771 13.4172 141.57 12.6408L130.51 12.6408C130.249 13.6529 129.628 14.5355 128.764 15.1222C128.33 15.417 127.848 15.6269 127.346 15.7463L127.346 57.6086C128.265 57.8442 129.078 58.3796 129.66 59.1291C130.242 59.8785 130.559 60.8 130.561 61.7492C130.563 62.5513 130.34 63.3381 129.917 64.0197C129.495 64.7013 128.89 65.251 128.171 65.6056C127.452 65.9603 126.648 66.1053 125.851 66.0256Z" fill="#8FDFF4" fill-opacity="0.3"/>
<path d="M161.409 -32.2857L161.409 26.2973L161.394 26.3269C162.442 26.5889 163.357 27.2254 163.968 28.1163C164.579 29.0072 164.844 30.0911 164.712 31.1637C164.58 32.2363 164.061 33.2236 163.252 33.9396C162.443 34.6556 161.401 35.0508 160.321 35.0508C159.242 35.0508 158.199 34.6556 157.391 33.9396C156.582 33.2236 156.063 32.2363 155.931 31.1637C155.799 30.0911 156.063 29.0072 156.675 28.1163C157.286 27.2254 158.201 26.5889 159.249 26.3269L159.249 -30.1159L146.788 -30.1159L146.788 -12.4038C147.8 -12.1424 148.681 -11.5209 149.267 -10.6556C149.853 -9.79037 150.104 -8.74083 149.972 -7.70374C149.841 -6.66665 149.336 -5.7132 148.552 -5.02212C147.769 -4.33103 146.76 -3.94975 145.716 -3.94975C144.671 -3.94975 143.663 -4.33103 142.879 -5.02212C142.095 -5.7132 141.59 -6.66665 141.459 -7.70374C141.327 -8.74083 141.578 -9.79037 142.164 -10.6556C142.75 -11.5209 143.632 -12.1424 144.643 -12.4038L144.643 -32.2857L161.409 -32.2857Z" fill="#8FDFF4" fill-opacity="0.3"/>
<path d="M297.675 -55.6539C298.48 -56.4595 299.571 -56.912 300.71 -56.912L300.717 -56.8825C301.823 -56.8365 302.869 -56.3643 303.636 -55.5645C304.402 -54.7647 304.83 -53.6993 304.83 -52.591C304.83 -51.4826 304.402 -50.4172 303.636 -49.6174C302.869 -48.8176 301.823 -48.3454 300.717 -48.2994C299.952 -48.3009 299.202 -48.5128 298.549 -48.912L284.541 -34.8898L284.541 31.4939C285.589 31.7552 286.505 32.3911 287.117 33.2819C287.729 34.1727 287.994 35.2568 287.862 36.3298C287.731 37.4028 287.212 38.3906 286.403 39.1069C285.594 39.8233 284.552 40.2187 283.472 40.2187C282.392 40.2187 281.349 39.8233 280.54 39.1069C279.731 38.3906 279.212 37.4028 279.081 36.3298C278.949 35.2568 279.214 34.1727 279.826 33.2819C280.438 32.3911 281.355 31.7552 282.403 31.4939L282.403 -34.8898L268.645 -48.6611C267.735 -48.1111 266.656 -47.9135 265.61 -48.1055C264.565 -48.2976 263.626 -48.866 262.971 -49.7036C262.316 -50.5411 261.989 -51.5897 262.054 -52.6516C262.118 -53.7134 262.568 -54.7149 263.32 -55.4671C264.071 -56.2194 265.072 -56.6702 266.133 -56.7345C267.193 -56.7988 268.241 -56.4722 269.078 -55.8164C269.914 -55.1605 270.482 -54.2207 270.674 -53.1744C270.866 -52.1281 270.669 -51.0477 270.119 -50.1371L283.435 -36.853L297.023 -50.4544C296.631 -51.1076 296.422 -51.8547 296.418 -52.6168C296.418 -53.7559 296.871 -54.8484 297.675 -55.6539Z" fill="#8FDFF4" fill-opacity="0.3"/>
<path d="M71.5703 6.70068C72.3191 6.1182 73.24 5.80137 74.1882 5.8C74.9896 5.79812 75.7755 6.02129 76.4564 6.44415C77.1374 6.86702 77.6862 7.4726 78.0405 8.1921C78.3948 8.91159 78.5404 9.71614 78.4607 10.5143C78.381 11.3125 78.0792 12.0723 77.5896 12.7073C77.1 13.3424 76.4423 13.8272 75.6912 14.1068C74.9401 14.3864 74.1257 14.4494 73.3405 14.2888C72.5554 14.1282 71.831 13.7503 71.2497 13.1982C70.6683 12.646 70.2534 11.9417 70.0521 11.1653L41.2977 11.1653C41.0366 12.1775 40.4156 13.0597 39.5512 13.6464C38.6868 14.2332 37.6383 14.4842 36.6022 14.3525C35.5661 14.2207 34.6136 13.7153 33.9232 12.9309C33.2327 12.1465 32.8518 11.1369 32.8518 10.0915C32.8518 9.04608 33.2327 8.03654 33.9232 7.25213C34.6136 6.46771 35.5661 5.96227 36.6022 5.83054C37.6383 5.69881 38.6868 5.94985 39.5512 6.53659C40.4156 7.12332 41.0366 8.00548 41.2977 9.01771L70.0521 9.0177C70.2875 8.09823 70.8216 7.28316 71.5703 6.70068Z" fill="#8FDFF4" fill-opacity="0.3"/>
<path d="M93.6902 -27.59C94.4387 -28.1722 95.3589 -28.4895 96.3069 -28.4922C97.1083 -28.4941 97.8941 -28.2709 98.5751 -27.848C99.256 -27.4252 99.8049 -26.8196 100.159 -26.1001C100.513 -25.3806 100.659 -24.576 100.579 -23.7779C100.5 -22.9797 100.198 -22.2199 99.7083 -21.5849C99.2187 -20.9498 98.5609 -20.4649 97.8098 -20.1854C97.0587 -19.9058 96.2443 -19.8428 95.4591 -20.0034C94.674 -20.164 93.9496 -20.5419 93.3683 -21.094C92.787 -21.6462 92.3721 -22.3505 92.1707 -23.1269L74.3651 -23.1269L60.1575 -37.3483L21.4496 -37.3483L21.4496 5.66279C22.4971 5.92486 23.4126 6.56132 24.0237 7.45223C24.6348 8.34314 24.8994 9.42702 24.7675 10.4996C24.6356 11.5722 24.1164 12.5595 23.3076 13.2755C22.4989 13.9915 21.4565 14.3867 20.3769 14.3867C19.2972 14.3867 18.2548 13.9915 17.4461 13.2755C16.6374 12.5595 16.1181 11.5722 15.9862 10.4996C15.8543 9.42702 16.1189 8.34314 16.73 7.45223C17.3411 6.56132 18.2567 5.92486 19.3041 5.66279L19.3041 -39.4959L61.0422 -39.4959L75.2498 -25.2745L92.1707 -25.2745C92.4073 -26.1933 92.9417 -27.0077 93.6902 -27.59Z" fill="#8FDFF4" fill-opacity="0.3"/>
<path d="M203.53 29.1484C202.451 29.1484 201.408 28.753 200.6 28.0371C199.791 27.3212 199.272 26.3341 199.14 25.2617C199.008 24.1891 199.273 23.1048 199.884 22.2139C200.495 21.323 201.411 20.6869 202.458 20.4248L202.458 -47.8633L229.693 -75.125L229.693 -115.59L222.366 -122.803C221.691 -122.385 220.895 -122.144 220.042 -122.144C217.599 -122.144 215.618 -124.126 215.618 -126.571C215.618 -129.017 217.599 -130.999 220.042 -130.999C222.485 -130.999 224.466 -129.017 224.466 -126.571C224.466 -125.75 224.242 -124.982 223.853 -124.322L231.839 -116.476L231.839 -74.2393L204.604 -46.9775L204.604 20.4248C205.651 20.6869 206.567 21.323 207.178 22.2139C207.789 23.1048 208.053 24.1892 207.921 25.2617C207.789 26.3342 207.27 27.3212 206.461 28.0371C205.652 28.753 204.61 29.1484 203.53 29.1484Z" fill="#8FDFF4" fill-opacity="0.3"/>
<path d="M115.593 -46.431C116.378 -47.1195 117.387 -47.4968 118.431 -47.4921C119.474 -47.495 120.482 -47.1164 121.265 -46.4273C122.049 -45.7383 122.554 -44.7864 122.685 -43.7508C122.817 -42.7152 122.565 -41.6672 121.979 -40.804C121.392 -39.9409 120.511 -39.3221 119.5 -39.064L119.5 -8.50314L105.595 5.42306L105.595 25.8585C106.606 26.1198 107.487 26.7414 108.073 27.6066C108.66 28.4719 108.91 29.5214 108.779 30.5585C108.647 31.5956 108.142 32.5491 107.358 33.2401C106.575 33.9312 105.566 34.3125 104.522 34.3125C103.477 34.3125 102.469 33.9312 101.685 33.2401C100.902 32.5491 100.397 31.5956 100.265 30.5585C100.133 29.5214 100.384 28.4719 100.97 27.6066C101.557 26.7414 102.438 26.1198 103.449 25.8585L103.449 4.53006L117.354 -9.38876L117.354 -39.064C116.343 -39.3222 115.461 -39.9416 114.875 -40.8055C114.288 -41.6695 114.037 -42.7183 114.17 -43.7545C114.302 -44.7907 114.808 -45.7426 115.593 -46.431Z" fill="#8FDFF4" fill-opacity="0.3"/>
<path d="M225.778 -19.9327L239.683 -6.0065L239.683 12.5913C240.693 12.8518 241.573 13.472 242.158 14.3357C242.744 15.1994 242.995 16.2473 242.863 17.2828C242.732 18.3183 242.228 19.2703 241.446 19.9604C240.664 20.6505 239.657 21.0312 238.614 21.0312C237.571 21.0312 236.564 20.6505 235.782 19.9604C234.999 19.2703 234.495 18.3183 234.364 17.2828C234.233 16.2473 234.484 15.1994 235.069 14.3357C235.655 13.472 236.535 12.8518 237.545 12.5913L237.545 -5.1209L223.632 -19.0471L223.632 -40.3681C222.621 -40.6295 221.739 -41.251 221.153 -42.1163C220.567 -42.9815 220.316 -44.0311 220.448 -45.0682C220.58 -46.1052 221.084 -47.0587 221.868 -47.7498C222.652 -48.4409 223.66 -48.8221 224.705 -48.8221C225.749 -48.8221 226.758 -48.4409 227.541 -47.7498C228.325 -47.0587 228.83 -46.1052 228.962 -45.0682C229.093 -44.0311 228.842 -42.9815 228.256 -42.1163C227.67 -41.251 226.789 -40.6295 225.778 -40.3681L225.778 -19.9327Z" fill="#8FDFF4" fill-opacity="0.3"/>
<path d="M262.346 -13.7945C263.124 -14.4842 264.127 -14.8668 265.167 -14.871C266.207 -14.8685 267.211 -14.4872 267.991 -13.7982C268.771 -13.1091 269.274 -12.1595 269.406 -11.1265C269.538 -10.0935 269.289 -9.04778 268.707 -8.18459C268.126 -7.32139 267.25 -6.6997 266.243 -6.43557L266.243 26.177L252.235 40.0958L252.235 60.546C253.246 60.8073 254.127 61.4289 254.713 62.2941C255.3 63.1594 255.55 64.2089 255.419 65.246C255.287 66.2831 254.782 67.2366 253.999 67.9276C253.215 68.6187 252.206 69 251.162 69C250.118 69 249.109 68.6187 248.325 67.9276C247.542 67.2366 247.037 66.2831 246.905 65.246C246.773 64.2089 247.024 63.1594 247.61 62.2941C248.197 61.4289 249.078 60.8073 250.089 60.546L250.089 39.225L264.098 25.2988L264.098 -6.43557C263.092 -6.69952 262.216 -7.32062 261.634 -8.18305C261.052 -9.04547 260.804 -10.0903 260.934 -11.1228C261.065 -12.1553 261.567 -13.1049 262.346 -13.7945Z" fill="#8FDFF4" fill-opacity="0.3"/>
<path d="M318.636 -14.0304L299.57 -0.104166L299.57 18.4936C298.56 18.7541 297.68 19.3744 297.095 20.2381C296.509 21.1018 296.258 22.1496 296.39 23.1851C296.521 24.2206 297.025 25.1727 297.807 25.8628C298.589 26.5528 299.596 26.9336 300.639 26.9336C301.682 26.9336 302.689 26.5528 303.471 25.8628C304.254 25.1727 304.758 24.2206 304.889 23.1851C305.02 22.1496 304.769 21.1018 304.184 20.2381C303.598 19.3744 302.718 18.7541 301.708 18.4936L301.708 0.781441L320.782 -13.1448L320.782 -34.4658C321.793 -34.7271 322.675 -35.3487 323.261 -36.2139C323.847 -37.0792 324.098 -38.1287 323.966 -39.1658C323.834 -40.2029 323.33 -41.1563 322.546 -41.8474C321.762 -42.5385 320.754 -42.9198 319.709 -42.9198C318.665 -42.9198 317.656 -42.5385 316.873 -41.8474C316.089 -41.1563 315.584 -40.2029 315.452 -39.1658C315.321 -38.1287 315.572 -37.0792 316.158 -36.2139C316.744 -35.3487 317.625 -34.7271 318.636 -34.4658L318.636 -14.0304Z" fill="#8FDFF4" fill-opacity="0.3"/>
</g>
<defs>
<clipPath id="clip0_5172_15333">
<rect width="1280" height="69" fill="white"/>
</clipPath>
</defs>
</svg>