<svg width="234" height="230" viewBox="0 0 234 230" fill="none" xmlns="http://www.w3.org/2000/svg">
<g clip-path="url(#clip0_5172_14405)">
<mask id="mask0_5172_14405" style="mask-type:luminance" maskUnits="userSpaceOnUse" x="0" y="0" width="234" height="230">
<path d="M118.449 228.161C118.449 229.146 119.239 230 120.292 230C121.28 230 122.136 229.212 122.136 228.161C122.136 227.176 121.346 226.322 120.292 226.322C119.304 226.388 118.449 227.176 118.449 228.161ZM101.33 227.57C101.33 228.752 102.317 229.737 103.503 229.737C104.688 229.737 105.675 228.752 105.675 227.57C105.675 226.388 104.688 225.403 103.503 225.403C102.317 225.403 101.33 226.388 101.33 227.57ZM135.238 226.322C135.238 227.307 136.028 228.095 137.016 228.095C138.003 228.095 138.793 227.307 138.793 226.322C138.793 225.337 138.003 224.549 137.016 224.549C136.028 224.549 135.238 225.337 135.238 226.322ZM84.2769 224.483C84.2769 225.928 85.462 227.11 86.9105 227.11C88.359 227.11 89.5442 225.928 89.5442 224.483C89.5442 223.038 88.359 221.856 86.9105 221.856C85.5279 221.79 84.2769 222.973 84.2769 224.483ZM151.435 221.987C151.435 223.038 152.291 223.826 153.279 223.826C154.266 223.826 155.122 222.973 155.122 221.987C155.122 220.937 154.266 220.148 153.279 220.148C152.291 220.148 151.435 221.002 151.435 221.987ZM67.7507 218.966C67.7507 220.805 69.1992 222.25 71.0428 222.25C72.8863 222.25 74.3348 220.805 74.3348 218.966C74.3348 217.127 72.8863 215.682 71.0428 215.682C69.2651 215.617 67.7507 217.127 67.7507 218.966ZM166.513 215.288C166.513 216.471 167.5 217.456 168.685 217.456C169.871 217.456 170.858 216.471 170.858 215.288C170.858 214.106 169.871 213.121 168.685 213.121C167.5 213.121 166.513 214.106 166.513 215.288ZM105.741 214.5C105.741 215.485 106.531 216.274 107.519 216.274C108.506 216.274 109.297 215.485 109.297 214.5C109.297 213.515 108.506 212.727 107.519 212.727C106.531 212.727 105.741 213.515 105.741 214.5ZM122.662 214.5C122.662 215.617 123.584 216.602 124.769 216.602C125.889 216.602 126.876 215.682 126.876 214.5C126.876 213.384 125.954 212.399 124.769 212.399C123.584 212.399 122.662 213.318 122.662 214.5ZM88.6224 211.545C88.6224 212.53 89.4125 213.384 90.466 213.384C91.4536 213.384 92.3095 212.596 92.3095 211.545C92.3095 210.56 91.5194 209.706 90.466 209.706C89.4783 209.706 88.6224 210.56 88.6224 211.545ZM139.123 211.545C139.123 212.99 140.308 214.172 141.756 214.172C143.205 214.172 144.39 212.99 144.39 211.545C144.39 210.1 143.205 208.918 141.756 208.918C140.308 208.852 139.123 210.034 139.123 211.545ZM52.2122 211.085C52.2122 213.318 53.9899 215.091 56.2285 215.091C58.4671 215.091 60.2448 213.318 60.2448 211.085C60.2448 208.852 58.4671 207.079 56.2285 207.079C53.9899 207.144 52.2122 208.918 52.2122 211.085ZM180.339 206.356C180.339 207.801 181.524 208.983 182.973 208.983C184.421 208.983 185.607 207.801 185.607 206.356C185.607 204.911 184.421 203.729 182.973 203.729C181.524 203.795 180.339 204.911 180.339 206.356ZM72.1621 205.634C72.1621 206.75 73.0838 207.67 74.2031 207.67C75.3224 207.67 76.2442 206.75 76.2442 205.634C76.2442 204.517 75.3224 203.598 74.2031 203.598C73.0838 203.598 72.1621 204.517 72.1621 205.634ZM154.595 205.634C154.595 207.539 156.11 209.049 158.019 209.049C159.929 209.049 161.443 207.539 161.443 205.634C161.443 203.729 159.929 202.219 158.019 202.219C156.11 202.219 154.595 203.795 154.595 205.634ZM110.416 200.774C110.416 202.81 112.062 204.517 114.169 204.517C116.21 204.517 117.922 202.876 117.922 200.774C117.922 198.738 116.276 197.03 114.169 197.03C112.062 197.03 110.416 198.672 110.416 200.774ZM38.0563 201.102C38.0563 203.664 40.0974 205.7 42.6652 205.7C45.233 205.7 47.2741 203.664 47.2741 201.102C47.2741 198.541 45.233 196.505 42.6652 196.505C40.1632 196.571 38.0563 198.607 38.0563 201.102ZM95.5357 198.869C95.5357 200.248 96.655 201.431 98.1035 201.431C99.4862 201.431 100.671 200.314 100.671 198.869C100.671 197.49 99.5521 196.308 98.1035 196.308C96.7209 196.308 95.5357 197.424 95.5357 198.869ZM125.494 199.592C125.494 202.219 127.6 204.386 130.3 204.386C132.934 204.386 135.106 202.284 135.106 199.592C135.106 196.965 132.999 194.797 130.3 194.797C127.6 194.863 125.494 196.965 125.494 199.592ZM56.6894 197.03C56.6894 198.409 57.8087 199.592 59.2572 199.592C60.6398 199.592 61.825 198.475 61.825 197.03C61.825 195.651 60.7057 194.469 59.2572 194.469C57.8745 194.535 56.6894 195.651 56.6894 197.03ZM168.751 197.03C168.751 199.329 170.661 201.234 172.965 201.234C175.27 201.234 177.179 199.329 177.179 197.03C177.179 194.732 175.27 192.827 172.965 192.827C170.661 192.827 168.751 194.732 168.751 197.03ZM81.1823 193.943C81.1823 194.797 81.8407 195.454 82.6967 195.454C83.5526 195.454 84.211 194.797 84.211 193.943C84.211 193.09 83.5526 192.433 82.6967 192.433C81.8407 192.433 81.1823 193.155 81.1823 193.943ZM192.52 195.454C192.52 197.227 193.968 198.607 195.68 198.607C197.458 198.607 198.841 197.162 198.841 195.454C198.841 193.681 197.392 192.302 195.68 192.302C193.903 192.236 192.52 193.681 192.52 195.454ZM140.308 195.454C140.308 198.475 142.81 200.971 145.838 200.971C148.867 200.971 151.369 198.475 151.369 195.454C151.369 192.433 148.867 189.937 145.838 189.937C142.81 189.872 140.308 192.367 140.308 195.454ZM67.3557 186.259C67.3557 186.916 67.8824 187.441 68.5408 187.441C69.1992 187.441 69.7259 186.916 69.7259 186.259C69.7259 185.603 69.1992 185.077 68.5408 185.077C67.8824 185.077 67.3557 185.603 67.3557 186.259ZM25.7439 189.28C25.7439 192.039 27.9826 194.272 30.7479 194.272C33.5132 194.272 35.7518 192.039 35.7518 189.28C35.7518 186.522 33.5132 184.289 30.7479 184.289C27.9826 184.289 25.7439 186.522 25.7439 189.28ZM42.8627 185.997C42.8627 187.77 44.3112 189.149 46.0231 189.149C47.8008 189.149 49.1835 187.704 49.1835 185.997C49.1835 184.223 47.7349 182.844 46.0231 182.844C44.2454 182.778 42.8627 184.223 42.8627 185.997ZM154.398 188.361C154.398 191.645 157.032 194.272 160.324 194.272C163.616 194.272 166.249 191.645 166.249 188.361C166.249 185.077 163.616 182.45 160.324 182.45C157.097 182.45 154.398 185.077 154.398 188.361ZM181.393 185.931C181.393 188.624 183.566 190.791 186.265 190.791C188.965 190.791 191.137 188.624 191.137 185.931C191.137 183.238 188.965 181.071 186.265 181.071C183.566 181.071 181.393 183.238 181.393 185.931ZM202.857 182.713C202.857 184.814 204.569 186.522 206.676 186.522C208.783 186.522 210.495 184.814 210.495 182.713C210.495 180.611 208.783 178.903 206.676 178.903C204.569 178.903 202.857 180.611 202.857 182.713ZM54.8458 175.948C54.8458 176.605 55.3725 177.13 56.0309 177.13C56.6894 177.13 57.2161 176.605 57.2161 175.948C57.2161 175.291 56.6894 174.766 56.0309 174.766C55.3725 174.766 54.8458 175.291 54.8458 175.948ZM167.105 178.706C167.105 182.122 169.871 184.88 173.294 184.88C176.718 184.88 179.483 182.122 179.483 178.706C179.483 175.291 176.718 172.533 173.294 172.533C169.871 172.533 167.105 175.291 167.105 178.706ZM15.5385 175.751C15.5385 178.641 17.9088 181.005 20.8059 181.005C23.7029 181.005 26.0732 178.641 26.0732 175.751C26.0732 172.861 23.7029 170.497 20.8059 170.497C17.9088 170.563 15.5385 172.861 15.5385 175.751ZM31.0113 172.796C31.0113 174.963 32.7231 176.67 34.8959 176.67C37.0687 176.67 38.7805 174.963 38.7805 172.796C38.7805 170.628 37.0687 168.921 34.8959 168.921C32.789 168.921 31.0113 170.628 31.0113 172.796ZM192.125 172.73C192.125 175.62 194.429 177.918 197.326 177.918C200.223 177.918 202.528 175.62 202.528 172.73C202.528 169.84 200.223 167.541 197.326 167.541C194.429 167.541 192.125 169.906 192.125 172.73ZM211.219 168.527C211.219 170.957 213.194 172.927 215.63 172.927C218.066 172.927 220.042 170.957 220.042 168.527C220.042 166.097 218.066 164.126 215.63 164.126C213.194 164.126 211.219 166.097 211.219 168.527ZM44.5746 163.535C44.5746 164.192 45.1013 164.717 45.7597 164.717C46.4181 164.717 46.9449 164.192 46.9449 163.535C46.9449 162.878 46.4181 162.353 45.7597 162.353C45.1013 162.353 44.5746 162.878 44.5746 163.535ZM177.903 166.753C177.903 170.168 180.734 172.993 184.158 172.993C187.648 172.993 190.413 170.168 190.413 166.753C190.413 163.272 187.582 160.514 184.158 160.514C180.669 160.514 177.903 163.338 177.903 166.753ZM7.76927 160.908C7.76927 163.732 10.0737 166.097 12.9707 166.097C15.8019 166.097 18.1722 163.798 18.1722 160.908C18.1722 158.084 15.8678 155.72 12.9707 155.72C10.0737 155.785 7.76927 158.084 7.76927 160.908ZM21.7276 157.887C21.7276 160.383 23.7687 162.419 26.2707 162.419C28.7727 162.419 30.8137 160.383 30.8137 157.887C30.8137 155.391 28.7727 153.355 26.2707 153.355C23.7687 153.355 21.7276 155.326 21.7276 157.887ZM200.75 157.821C200.75 160.711 203.055 163.01 205.952 163.01C208.849 163.01 211.153 160.711 211.153 157.821C211.153 154.931 208.849 152.633 205.952 152.633C203.055 152.633 200.75 154.931 200.75 157.821ZM217.474 153.093C217.474 155.785 219.647 157.953 222.346 157.953C225.046 157.953 227.218 155.785 227.218 153.093C227.218 150.4 225.046 148.232 222.346 148.232C219.647 148.298 217.474 150.465 217.474 153.093ZM106.334 148.232C105.675 148.232 105.083 148.758 105.017 149.415C104.029 160.251 102.581 177.984 101.922 185.274C101.856 185.931 102.317 186.522 102.976 186.653C107.255 187.441 111.601 187.836 116.078 187.836C120.555 187.836 124.967 187.441 129.181 186.653C129.839 186.522 130.3 185.931 130.234 185.274C129.444 177.984 127.6 160.383 126.481 149.415C126.415 148.758 125.889 148.298 125.164 148.298H106.334V148.232ZM36.5419 149.415C36.5419 150.203 37.2003 150.859 37.9904 150.859C38.7805 150.859 39.4389 150.203 39.4389 149.415C39.4389 148.626 38.7805 147.97 37.9904 147.97C37.2003 147.97 36.5419 148.626 36.5419 149.415ZM186.397 153.027C186.397 156.442 189.162 159.2 192.586 159.2C196.01 159.2 198.775 156.442 198.775 153.027C198.775 149.612 196.01 146.853 192.586 146.853C189.162 146.853 186.397 149.612 186.397 153.027ZM2.50197 145.08C2.50197 147.773 4.67473 149.94 7.37423 149.94C10.0737 149.94 12.2465 147.773 12.2465 145.08C12.2465 142.387 10.0737 140.22 7.37423 140.22C4.67473 140.22 2.50197 142.387 2.50197 145.08ZM206.939 141.599C206.939 144.292 209.112 146.459 211.811 146.459C214.511 146.459 216.684 144.292 216.684 141.599C216.684 138.906 214.511 136.739 211.811 136.739C209.178 136.739 206.939 138.906 206.939 141.599ZM15.341 141.665C15.341 144.423 17.5796 146.656 20.345 146.656C23.1103 146.656 25.3489 144.423 25.3489 141.665C25.3489 138.906 23.1103 136.673 20.345 136.673C17.5796 136.673 15.341 138.906 15.341 141.665ZM192.257 137.921C192.257 141.205 194.89 143.832 198.182 143.832C201.474 143.832 204.108 141.205 204.108 137.921C204.108 134.637 201.474 132.01 198.182 132.01C194.89 132.01 192.257 134.637 192.257 137.921ZM221.49 136.936C221.49 139.76 223.795 142.124 226.692 142.124C229.523 142.124 231.893 139.826 231.893 136.936C231.893 134.112 229.589 131.748 226.692 131.748C223.795 131.748 221.49 134.046 221.49 136.936ZM30.6162 134.046C30.6162 135.425 31.7355 136.476 33.0523 136.476C34.435 136.476 35.4885 135.36 35.4885 134.046C35.4885 132.667 34.3692 131.616 33.0523 131.616C31.7355 131.616 30.6162 132.667 30.6162 134.046ZM0 128.595C0 130.959 1.9094 132.864 4.27969 132.864C6.64997 132.864 8.55937 130.959 8.55937 128.595C8.55937 126.231 6.64997 124.326 4.27969 124.326C1.9094 124.326 0 126.231 0 128.595ZM210.626 124.654C210.626 126.953 212.47 128.792 214.774 128.792C217.079 128.792 218.922 126.953 218.922 124.654C218.922 122.356 217.079 120.517 214.774 120.517C212.47 120.517 210.626 122.356 210.626 124.654ZM12.049 124.654C12.049 127.61 14.4192 129.974 17.3821 129.974C20.345 129.974 22.7153 127.61 22.7153 124.654C22.7153 121.699 20.345 119.335 17.3821 119.335C14.4192 119.335 12.049 121.699 12.049 124.654ZM195.219 122.027C195.219 125.114 197.721 127.61 200.816 127.61C203.911 127.61 206.412 125.114 206.412 122.027C206.412 118.941 203.911 116.445 200.816 116.445C197.721 116.445 195.219 118.941 195.219 122.027ZM223.07 120.254C223.07 123.275 225.506 125.705 228.535 125.705C231.564 125.705 234 123.275 234 120.254C234 117.233 231.564 114.803 228.535 114.803C225.506 114.803 223.07 117.233 223.07 120.254ZM27.5875 118.021C27.5875 119.991 29.1677 121.568 31.1429 121.568C33.1182 121.568 34.6984 119.991 34.6984 118.021C34.6984 116.051 33.1182 114.475 31.1429 114.475C29.1677 114.475 27.5875 116.051 27.5875 118.021ZM0.197524 111.848C0.197524 113.752 1.77772 115.328 3.68711 115.328C5.59651 115.328 7.1767 113.752 7.1767 111.848C7.1767 109.943 5.59651 108.367 3.68711 108.367C1.77772 108.367 0.197524 109.877 0.197524 111.848ZM211.614 107.381C211.614 109.155 213.062 110.6 214.84 110.6C216.618 110.6 218.066 109.155 218.066 107.381C218.066 105.608 216.618 104.163 214.84 104.163C213.062 104.229 211.614 105.674 211.614 107.381ZM11.7198 107.447C11.7198 110.534 14.2217 113.095 17.3821 113.095C20.4766 113.095 23.0445 110.6 23.0445 107.447C23.0445 104.36 20.5425 101.799 17.3821 101.799C14.2876 101.799 11.7198 104.36 11.7198 107.447ZM195.154 105.937C195.154 108.892 197.524 111.256 200.487 111.256C203.45 111.256 205.82 108.892 205.82 105.937C205.82 103.047 203.45 100.617 200.487 100.617C197.524 100.617 195.154 102.981 195.154 105.937ZM222.214 103.441C222.214 106.593 224.782 109.089 227.877 109.089C230.971 109.089 233.539 106.528 233.539 103.441C233.539 100.288 230.971 97.7927 227.877 97.7927C224.782 97.7927 222.214 100.354 222.214 103.441ZM27.785 101.996C27.785 104.492 29.8261 106.528 32.3281 106.528C34.83 106.528 36.8711 104.492 36.8711 101.996C36.8711 99.5003 34.83 97.4643 32.3281 97.4643C29.8261 97.4643 27.785 99.5003 27.785 101.996ZM2.96286 95.1656C2.96286 96.6105 4.148 97.7927 5.59651 97.7927C7.04502 97.7927 8.23016 96.6105 8.23016 95.1656C8.23016 93.7207 7.04502 92.5385 5.59651 92.5385C4.08216 92.5385 2.96286 93.7207 2.96286 95.1656ZM209.705 90.4369C209.705 91.6191 210.692 92.6042 211.877 92.6042C213.062 92.6042 214.05 91.6191 214.05 90.4369C214.05 89.2547 213.062 88.2696 211.877 88.2696C210.626 88.2696 209.705 89.2547 209.705 90.4369ZM140.9 86.6933L136.95 87.4158C136.752 87.4814 136.621 87.5471 136.423 87.6128L131.222 91.225C130.629 91.6191 129.839 91.4877 129.444 90.8966C128.983 90.2399 128.588 89.8458 128.391 89.7801C126.942 89.189 126.218 90.4369 124.177 91.3564C123.65 91.6191 122.992 91.4877 122.597 91.028C121.543 89.9115 120.687 89.1234 119.897 88.5323C118.646 87.6785 117.724 87.3501 116.078 88.4666C114.893 89.2547 115.156 90.831 114.037 91.4877C113.708 91.6848 113.247 91.6191 112.72 91.4877C111.93 91.3564 110.877 91.225 109.56 92.1445C107.914 93.261 109.231 94.7059 107.519 96.0194C106.729 96.6762 106.136 96.6105 105.478 96.5448C104.819 96.4791 104.161 96.4135 103.305 97.2673C101.659 98.8435 103.107 99.96 101.725 101.339C101.264 101.733 100.935 101.733 100.474 101.733C99.8813 101.733 99.2887 101.733 98.4328 102.784C97.3134 104.229 97.6427 107.841 99.8154 111.782C99.9471 112.11 100.145 112.373 100.276 112.636L89.0833 120.451C88.4907 120.845 88.359 121.633 88.7541 122.224L89.9392 123.932C90.3343 124.523 91.1902 124.654 91.7828 124.26L101.527 117.496C102.12 117.102 102.844 117.233 103.305 117.758C103.568 118.152 103.963 118.481 104.293 118.941C106.004 120.714 106.992 122.356 107.058 124.72C107.058 125.246 106.86 128.201 106.465 132.536C106.4 133.258 106.992 133.915 107.782 133.915H123.452C124.243 133.915 124.835 133.258 124.769 132.536C124.308 127.282 124.045 123.407 124.177 122.29C124.572 118.744 129.181 113.949 130.366 112.045C131.617 110.14 134.25 105.214 134.25 103.441C134.25 102.456 133.263 98.7778 132.67 96.9389C132.473 96.4135 132.67 95.8224 133.131 95.494L139.452 91.0937C139.649 90.9623 139.781 90.7653 139.913 90.5682L141.427 87.2844C141.559 86.956 141.295 86.562 140.966 86.562C140.966 86.6933 140.966 86.6933 140.9 86.6933ZM192.125 90.1742C192.125 92.8669 194.298 95.0999 197.063 95.0999C199.763 95.0999 202.001 92.9326 202.001 90.1742C202.001 87.4814 199.828 85.2484 197.063 85.2484C194.298 85.3141 192.125 87.4814 192.125 90.1742ZM14.4192 90.5026C14.4192 93.7864 17.0529 96.4135 20.345 96.4135C23.637 96.4135 26.2707 93.7864 26.2707 90.5026C26.2707 87.2187 23.637 84.5917 20.345 84.5917C17.0529 84.5917 14.4192 87.2187 14.4192 90.5026ZM31.4063 86.4306C31.4063 89.2547 33.7107 91.5534 36.5419 91.5534C39.3731 91.5534 41.6775 89.2547 41.6775 86.4306C41.6775 83.6065 39.3731 81.3078 36.5419 81.3078C33.7107 81.3078 31.4063 83.6065 31.4063 86.4306ZM218.922 86.956C218.922 90.2399 221.556 92.8669 224.848 92.8669C228.14 92.8669 230.774 90.2399 230.774 86.956C230.774 83.6722 228.14 81.0451 224.848 81.0451C221.556 81.0451 218.922 83.7379 218.922 86.956ZM8.09848 78.9435C8.09848 79.9286 8.88858 80.7167 9.8762 80.7167C10.8638 80.7167 11.6539 79.9286 11.6539 78.9435C11.6539 77.9583 10.8638 77.1702 9.8762 77.1702C8.88858 77.1702 8.09848 77.9583 8.09848 78.9435ZM204.701 74.2147C204.701 74.9372 205.293 75.4626 205.952 75.4626C206.676 75.4626 207.268 74.8715 207.268 74.2147C207.268 73.4923 206.676 72.9012 205.952 72.9012C205.227 72.9669 204.701 73.4923 204.701 74.2147ZM186.331 75.3969C186.331 77.7613 188.24 79.7316 190.676 79.7316C193.047 79.7316 195.022 77.827 195.022 75.3969C195.022 73.0326 193.113 71.0622 190.676 71.0622C188.306 71.0622 186.331 72.9669 186.331 75.3969ZM20.0816 74.2804C20.0816 77.6956 22.8469 80.3884 26.2048 80.3884C29.6286 80.3884 32.3281 77.6299 32.3281 74.2804C32.3281 70.8652 29.5627 68.1725 26.2048 68.1725C22.8469 68.1068 20.0816 70.8652 20.0816 74.2804ZM38.3196 71.916C38.3196 74.8058 40.6899 77.1702 43.5869 77.1702C46.484 77.1702 48.8542 74.8058 48.8542 71.916C48.8542 69.0263 46.484 66.6619 43.5869 66.6619C40.6241 66.7276 38.3196 69.0263 38.3196 71.916ZM213.194 71.1279C213.194 74.4774 215.959 77.2359 219.317 77.2359C222.675 77.2359 225.441 74.4774 225.441 71.1279C225.441 67.7784 222.675 65.02 219.317 65.02C215.894 65.02 213.194 67.7784 213.194 71.1279ZM15.4069 63.5751C15.4069 64.2319 15.9336 64.7573 16.592 64.7573C17.2504 64.7573 17.7772 64.2319 17.7772 63.5751C17.7772 62.9183 17.2504 62.3929 16.592 62.3929C15.9336 62.3929 15.4069 62.9183 15.4069 63.5751ZM178.035 62.0645C178.035 64.0348 179.615 65.6111 181.59 65.6111C183.566 65.6111 185.146 64.0348 185.146 62.0645C185.146 60.0942 183.566 58.518 181.59 58.518C179.615 58.518 178.035 60.0942 178.035 62.0645ZM196.141 59.3061C196.141 59.9629 196.668 60.4883 197.326 60.4883C197.985 60.4883 198.512 59.9629 198.512 59.3061C198.512 58.6493 197.985 58.1239 197.326 58.1239C196.668 58.1239 196.141 58.6493 196.141 59.3061ZM48.2617 59.0434C48.2617 61.8018 50.5003 64.0348 53.2656 64.0348C56.031 64.0348 58.2696 61.8018 58.2696 59.0434C58.2696 56.285 56.031 54.052 53.2656 54.052C50.5003 54.052 48.2617 56.285 48.2617 59.0434ZM28.5751 59.3061C28.5751 62.787 31.4063 65.5454 34.8301 65.5454C38.3196 65.5454 41.085 62.7213 41.085 59.3061C41.085 55.8252 38.2538 53.0668 34.8301 53.0668C31.4063 53.0668 28.5751 55.8909 28.5751 59.3061ZM205.162 56.285C205.162 59.7002 207.927 62.5243 211.416 62.5243C214.84 62.5243 217.671 59.7658 217.671 56.285C217.671 52.8698 214.906 50.0457 211.416 50.0457C207.993 50.0457 205.162 52.8698 205.162 56.285ZM24.3613 49.3232C24.3613 49.98 24.888 50.5054 25.5464 50.5054C26.2048 50.5054 26.7316 49.98 26.7316 49.3232C26.7316 48.6665 26.2048 48.1411 25.5464 48.1411C24.888 48.2067 24.3613 48.7322 24.3613 49.3232ZM167.369 50.6368C167.369 52.213 168.62 53.4609 170.2 53.4609C171.78 53.4609 173.031 52.213 173.031 50.6368C173.031 49.0605 171.78 47.8127 170.2 47.8127C168.62 47.8127 167.369 49.1262 167.369 50.6368ZM185.014 46.1051C185.014 46.7618 185.541 47.2873 186.199 47.2873C186.858 47.2873 187.384 46.7618 187.384 46.1051C187.384 45.4483 186.858 44.9229 186.199 44.9229C185.541 44.9229 185.014 45.4483 185.014 46.1051ZM60.8374 48.2067C60.8374 50.5711 62.8126 52.5414 65.1829 52.5414C67.5532 52.5414 69.5284 50.5711 69.5284 48.2067C69.5284 45.8424 67.5532 43.8721 65.1829 43.8721C62.7468 43.8721 60.8374 45.7767 60.8374 48.2067ZM43.7186 114.409C43.7186 130.828 49.0518 145.934 58.0062 158.215C58.6646 159.069 59.9814 158.806 60.3106 157.756L87.5689 60.2913C87.7006 59.7659 88.2273 59.3718 88.8199 59.3718H144.324C144.917 59.3718 145.443 59.7659 145.575 60.2913L172.175 157.493C172.438 158.544 173.821 158.806 174.479 157.953C183.368 145.737 188.569 130.697 188.569 114.343C188.569 73.755 156.176 40.8509 116.21 40.8509C76.1125 40.9166 43.7186 73.8207 43.7186 114.409ZM39.7682 46.1051C39.7682 49.5203 42.5335 52.2787 45.9572 52.2787C49.381 52.2787 52.1463 49.5203 52.1463 46.1051C52.1463 42.6899 49.381 39.9315 45.9572 39.9315C42.5335 39.9315 39.7682 42.6899 39.7682 46.1051ZM154.595 41.6391C154.595 42.8212 155.583 43.8064 156.768 43.8064C157.953 43.8064 158.941 42.8212 158.941 41.6391C158.941 40.4569 157.953 39.4717 156.768 39.4717C155.583 39.4061 154.595 40.3912 154.595 41.6391ZM195.154 42.7556C195.154 46.1708 197.919 48.9949 201.409 48.9949C204.832 48.9949 207.663 46.1708 207.663 42.7556C207.663 39.3404 204.898 36.5163 201.409 36.5163C197.985 36.582 195.154 39.3404 195.154 42.7556ZM75.4541 39.8001C75.4541 41.7047 77.0343 43.281 78.9437 43.281C80.8531 43.281 82.4333 41.7047 82.4333 39.8001C82.4333 37.8955 80.8531 36.3192 78.9437 36.3192C77.0343 36.3192 75.4541 37.8955 75.4541 39.8001ZM35.3568 36.6476C35.3568 37.3044 35.8835 37.8298 36.5419 37.8298C37.2003 37.8298 37.7271 37.3044 37.7271 36.6476C37.7271 35.9909 37.2003 35.4654 36.5419 35.4654C35.8835 35.4654 35.3568 35.9909 35.3568 36.6476ZM171.714 35.0057C171.714 35.6625 172.241 36.1879 172.899 36.1879C173.558 36.1879 174.084 35.6625 174.084 35.0057C174.084 34.3489 173.558 33.8235 172.899 33.8235C172.241 33.8235 171.714 34.3489 171.714 35.0057ZM140.11 35.2684C140.11 36.3192 140.966 37.1074 141.954 37.1074C142.941 37.1074 143.797 36.2536 143.797 35.2684C143.797 34.2833 142.941 33.4295 141.954 33.4295C140.966 33.4295 140.11 34.2833 140.11 35.2684ZM91.4536 34.1519C91.4536 35.5968 92.6387 36.779 94.0872 36.779C95.5357 36.779 96.7209 35.5968 96.7209 34.1519C96.7209 32.707 95.5357 31.5248 94.0872 31.5248C92.6387 31.5248 91.4536 32.707 91.4536 34.1519ZM124.374 31.8532C124.374 32.8384 125.164 33.6265 126.152 33.6265C127.14 33.6265 127.93 32.8384 127.93 31.8532C127.93 30.8681 127.14 30.08 126.152 30.08C125.164 30.1456 124.374 30.9338 124.374 31.8532ZM107.98 31.5248C107.98 32.6413 108.902 33.5608 110.021 33.5608C111.14 33.5608 112.062 32.6413 112.062 31.5248C112.062 30.4083 111.14 29.4889 110.021 29.4889C108.902 29.4889 107.98 30.4083 107.98 31.5248ZM53.1339 35.0714C53.1339 38.4209 55.8334 41.1136 59.1913 41.1136C62.5492 41.1136 65.2487 38.4209 65.2487 35.0714C65.2487 31.7219 62.5492 29.0291 59.1913 29.0291C55.8334 29.0291 53.1339 31.7219 53.1339 35.0714ZM156.571 26.4021C156.571 27.1902 157.163 27.7813 157.953 27.7813C158.743 27.7813 159.336 27.1902 159.336 26.4021C159.336 25.6139 158.743 25.0228 157.953 25.0228C157.163 25.0228 156.571 25.6139 156.571 26.4021ZM183.368 30.9338C183.368 34.3489 186.133 37.0417 189.491 37.0417C192.915 37.0417 195.615 34.2833 195.615 30.9338C195.615 27.5186 192.849 24.8258 189.491 24.8258C186.133 24.7601 183.368 27.5186 183.368 30.9338ZM48.0642 25.6796C48.0642 26.3364 48.5909 26.8618 49.2493 26.8618C49.9077 26.8618 50.4344 26.3364 50.4344 25.6796C50.4344 25.0228 49.9077 24.4974 49.2493 24.4974C48.5909 24.4974 48.0642 25.0228 48.0642 25.6796ZM68.4091 26.4021C68.4091 29.5545 70.9769 32.1159 74.1373 32.1159C77.2977 32.1159 79.8655 29.5545 79.8655 26.4021C79.8655 23.2496 77.2977 20.6882 74.1373 20.6882C70.9769 20.6882 68.4091 23.2496 68.4091 26.4021ZM139.452 20.4911C139.452 21.739 140.439 22.7242 141.69 22.7242C142.941 22.7242 143.995 21.739 143.995 20.4911C143.995 19.2433 143.007 18.1925 141.69 18.1925C140.439 18.2581 139.452 19.2433 139.452 20.4911ZM62.3517 16.7476C62.3517 17.4043 62.8784 17.9298 63.5369 17.9298C64.1953 17.9298 64.722 17.4043 64.722 16.7476C64.722 16.0908 64.1953 15.5654 63.5369 15.5654C62.8784 15.5654 62.3517 16.0908 62.3517 16.7476ZM85.1986 20.5568C85.1986 23.4466 87.5031 25.7453 90.4001 25.7453C93.2971 25.7453 95.6016 23.4466 95.6016 20.5568C95.6016 17.667 93.2971 15.3684 90.4001 15.3684C87.5031 15.3684 85.1986 17.667 85.1986 20.5568ZM170.068 20.9509C170.068 24.2347 172.768 26.9275 176.06 26.9275C179.352 26.9275 182.051 24.2347 182.051 20.9509C182.051 17.667 179.352 14.9743 176.06 14.9743C172.702 14.9743 170.068 17.667 170.068 20.9509ZM121.346 17.5357C121.346 19.3746 122.86 20.8852 124.703 20.8852C126.547 20.8852 128.061 19.3746 128.061 17.5357C128.061 15.6967 126.547 14.1862 124.703 14.1862C122.86 14.2519 121.346 15.6967 121.346 17.5357ZM103.042 17.5357C103.042 19.9657 105.017 21.8704 107.387 21.8704C109.757 21.8704 111.733 19.9001 111.733 17.5357C111.733 15.1057 109.757 13.201 107.387 13.201C105.017 13.201 103.042 15.1713 103.042 17.5357ZM77.0343 10.0485C77.0343 11.0994 77.8903 11.8875 78.8779 11.8875C79.9313 11.8875 80.7214 11.0337 80.7214 10.0485C80.7214 8.99772 79.8655 8.20959 78.8779 8.20959C77.8903 8.20959 77.0343 8.99772 77.0343 10.0485ZM155.451 13.1354C155.451 16.2878 158.019 18.7836 161.114 18.7836C164.208 18.7836 166.776 16.2222 166.776 13.1354C166.776 9.98287 164.208 7.48715 161.114 7.48715C158.019 7.48715 155.451 9.98287 155.451 13.1354ZM92.4412 5.71388C92.4412 7.22444 93.6263 8.40662 95.1407 8.40662C96.655 8.40662 97.8402 7.22444 97.8402 5.71388C97.8402 4.20331 96.655 3.02113 95.1407 3.02113C93.6922 3.02113 92.4412 4.26899 92.4412 5.71388ZM140.044 7.6185C140.044 10.5083 142.349 12.807 145.246 12.807C148.143 12.807 150.447 10.5083 150.447 7.6185C150.447 4.72873 148.143 2.43004 145.246 2.43004C142.349 2.43004 140.044 4.72873 140.044 7.6185ZM108.243 3.87493C108.243 5.91091 109.889 7.48715 111.864 7.48715C113.905 7.48715 115.486 5.84523 115.486 3.87493C115.486 1.83895 113.84 0.262707 111.864 0.262707C109.889 0.262707 108.243 1.83895 108.243 3.87493ZM124.177 4.46602C124.177 6.96174 126.218 8.93204 128.654 8.93204C131.09 8.93204 133.131 6.89606 133.131 4.46602C133.131 1.9703 131.09 0 128.654 0C126.218 0 124.177 2.03598 124.177 4.46602Z" fill="white"/>
</mask>
<g mask="url(#mask0_5172_14405)">
<path d="M234 0H0V230H234V0Z" fill="url(#paint0_linear_5172_14405)"/>
</g>
<mask id="mask1_5172_14405" style="mask-type:luminance" maskUnits="userSpaceOnUse" x="45" y="40" width="143" height="144">
<path d="M113.839 181.335H102.317C102.317 181.663 102.251 181.992 102.251 182.32H113.839C114.037 183.174 114.827 183.765 115.683 183.765C116.736 183.765 117.592 182.911 117.592 181.795C117.592 180.744 116.736 179.824 115.683 179.824C114.761 179.89 114.037 180.481 113.839 181.335ZM109.691 148.234V162.092C108.836 162.289 108.243 163.077 108.243 163.996C108.243 165.047 109.099 165.967 110.152 165.967C111.206 165.967 112.062 165.113 112.062 163.996C112.062 163.077 111.469 162.354 110.613 162.092V148.431L110.482 148.234H109.691ZM110.942 148.234L117.987 156.772H123.65V179.956C122.794 180.153 122.201 180.941 122.201 181.86C122.201 182.911 123.057 183.831 124.111 183.831C125.164 183.831 126.02 182.977 126.02 181.86C126.02 180.941 125.428 180.218 124.572 179.956V156.772H127.205C127.139 156.443 127.139 156.115 127.074 155.787H118.317L112.062 148.234H110.942ZM54.9115 147.511C54.9115 148.562 55.7674 149.482 56.8209 149.482C57.7427 149.482 58.4669 148.891 58.6645 148.037H62.9441L63.2075 147.052H58.6645C58.4669 146.198 57.6768 145.607 56.8209 145.607C55.7674 145.541 54.9115 146.461 54.9115 147.511ZM52.6729 139.761H48.1957C48.3274 140.09 48.4591 140.418 48.5249 140.747H52.6729C52.8704 141.6 53.6605 142.192 54.5165 142.192C55.5699 142.192 56.4259 141.338 56.4259 140.221C56.4259 139.17 55.5699 138.251 54.5165 138.251C53.5947 138.317 52.8704 138.973 52.6729 139.761ZM176.784 136.675C176.784 137.66 177.574 138.514 178.561 138.514C179.417 138.514 180.076 137.923 180.273 137.134H184.948C185.014 136.806 185.146 136.543 185.211 136.215H180.273C180.076 135.427 179.352 134.836 178.561 134.836C177.574 134.901 176.784 135.69 176.784 136.675ZM59.1254 134.836C59.1254 135.887 59.9813 136.806 61.0347 136.806C61.9565 136.806 62.6808 136.215 62.8783 135.361H66.4996L66.7629 134.376H62.8783C62.6808 133.522 61.8907 132.931 61.0347 132.931C59.9813 132.865 59.1254 133.785 59.1254 134.836ZM52.9363 129.056H45.167C45.2328 129.385 45.2987 129.713 45.3645 130.041H52.9363C53.1338 130.895 53.858 131.486 54.7798 131.486C55.8333 131.486 56.6892 130.632 56.6892 129.516C56.6892 128.465 55.8333 127.546 54.7798 127.546C53.9239 127.611 53.1996 128.202 52.9363 129.056ZM49.5784 120.584C49.5784 121.635 50.4343 122.554 51.4878 122.554C52.4095 122.554 53.1338 121.963 53.3313 121.109H70.4501L70.7134 120.124H53.3972C53.1996 119.27 52.4095 118.679 51.5536 118.679C50.4343 118.679 49.5784 119.533 49.5784 120.584ZM115.815 120.584C115.815 121.635 116.671 122.554 117.724 122.554C118.646 122.554 119.37 121.963 119.568 121.109H124.506C124.637 120.781 124.769 120.453 124.901 120.124H119.568C119.37 119.27 118.58 118.679 117.724 118.679C116.671 118.679 115.815 119.533 115.815 120.584ZM163.418 117.825C163.418 118.811 164.208 119.664 165.196 119.664C166.052 119.664 166.71 119.073 166.908 118.285L178.561 118.351L170.2 126.823H163.681L163.945 127.743H170.595L179.681 118.548L187.516 126.495C187.582 126.101 187.648 125.772 187.648 125.378L179.878 117.497L166.908 117.431C166.71 116.643 165.986 116.052 165.196 116.052C164.208 116.052 163.418 116.84 163.418 117.825ZM56.4259 106.398C56.4259 107.449 57.2818 108.368 58.3353 108.368C59.257 108.368 59.9813 107.777 60.1788 106.923H74.4664L74.7297 105.938H60.2447C60.0471 105.084 59.257 104.493 58.4011 104.493C57.2818 104.427 56.4259 105.347 56.4259 106.398ZM125.23 106.398C125.23 107.449 126.086 108.368 127.139 108.368C128.061 108.368 128.785 107.777 128.983 106.923H133.263C133.394 106.595 133.526 106.266 133.658 105.938H128.983C128.785 105.084 127.995 104.493 127.139 104.493C126.086 104.427 125.23 105.347 125.23 106.398ZM173.755 101.209L169.278 105.741C169.014 105.61 168.685 105.478 168.356 105.478C167.368 105.478 166.578 106.266 166.578 107.317C166.578 108.302 167.368 109.156 168.356 109.156C169.344 109.156 170.134 108.368 170.134 107.317C170.134 106.989 170.068 106.66 169.87 106.398L174.084 102.129H187.45C187.384 101.8 187.318 101.538 187.318 101.209H173.755ZM171.78 92.6713C171.78 92.9996 171.846 93.328 172.043 93.5907L166.578 99.1732H156.175L156.439 100.093H166.973L172.702 94.2475C172.965 94.3788 173.294 94.5102 173.623 94.5102C174.611 94.5102 175.401 93.7221 175.401 92.6713C175.401 91.6861 174.611 90.8323 173.623 90.8323C172.57 90.8323 171.78 91.6861 171.78 92.6713ZM51.0269 82.163V90.4382V90.6353V108.105C50.1709 108.302 49.5784 109.09 49.5784 110.01C49.5784 111.061 50.4343 111.98 51.4878 111.98C52.5412 111.98 53.3972 111.126 53.3972 110.01C53.3972 109.09 52.8046 108.368 51.9486 108.105V95.8894V94.8386H59.1912C59.3887 95.6924 60.1788 96.2835 61.0347 96.2835C62.0882 96.2835 62.9441 95.4297 62.9441 94.3132C62.9441 93.2623 62.0882 92.3429 61.0347 92.3429C60.113 92.3429 59.3887 92.9996 59.1912 93.7878H52.0145V80.2583C51.6853 80.9151 51.3561 81.5719 51.0269 82.163ZM170.529 79.6016C170.529 80.5867 171.319 81.4405 172.307 81.4405C173.163 81.4405 173.821 80.8494 174.018 80.0613H179.549L173.558 86.1036H166.249C166.183 85.7752 166.052 85.5125 165.788 85.2498C165.064 84.5273 163.945 84.5273 163.286 85.2498C162.562 85.9722 162.562 87.0887 163.286 87.8112C164.011 88.5336 165.13 88.5336 165.788 87.8112C166.052 87.5485 166.183 87.2858 166.249 86.9574H173.953L180.405 80.4554C180.142 79.9956 179.944 79.5359 179.681 79.0762H174.084C173.887 78.288 173.162 77.697 172.372 77.697C171.385 77.8283 170.529 78.6164 170.529 79.6016ZM67.4214 78.091C67.4214 79.0105 68.0139 79.7329 68.8699 79.9956V87.8112C68.0139 88.0082 67.4214 88.7963 67.4214 89.7158C67.4214 90.7666 68.2773 91.6861 69.3308 91.6861C70.3842 91.6861 71.2402 90.8323 71.2402 89.7158C71.2402 88.7963 70.6476 88.0739 69.7916 87.8112V79.9956C70.6476 79.7986 71.2402 79.0105 71.2402 78.091C71.2402 77.0402 70.3842 76.1207 69.3308 76.1207C68.2773 76.1207 67.4214 76.9745 67.4214 78.091ZM164.011 70.6695H156.702C156.636 70.3412 156.505 70.0785 156.241 69.8157C155.517 69.0933 154.398 69.0933 153.739 69.8157C153.015 70.5382 153.015 71.6547 153.739 72.3771C154.464 73.0996 155.583 73.0996 156.241 72.3771C156.505 72.1144 156.636 71.8517 156.702 71.5233H164.406L170.331 65.6124C170.134 65.4154 169.936 65.1527 169.739 64.9557L164.011 70.6695ZM62.1541 65.4154L67.553 71.9831H74.9273C75.1248 72.8369 75.9149 73.428 76.7708 73.428C77.8243 73.428 78.6802 72.5742 78.6802 71.4577C78.6802 70.4068 77.8243 69.4874 76.7708 69.4874C75.849 69.4874 75.1248 70.0784 74.9273 70.9322H67.9481L62.7466 64.6273C62.6149 64.9557 62.3516 65.1527 62.1541 65.4154ZM160.982 64.1675C160.982 65.1527 161.772 66.0065 162.76 66.0065C163.616 66.0065 164.274 65.4154 164.471 64.6273H169.344C169.08 64.2989 168.817 64.0362 168.488 63.7078H164.471C164.274 62.9197 163.55 62.3286 162.76 62.3286C161.772 62.3286 160.982 63.1824 160.982 64.1675ZM145.838 52.5428C145.838 52.8711 145.904 53.1995 146.102 53.4622L143.007 56.549H134.382V59.3075H135.304V57.4685H143.402L146.76 54.0533C147.023 54.1847 147.353 54.316 147.682 54.316C148.67 54.316 149.46 53.5279 149.46 52.4771C149.46 51.4919 148.67 50.6381 147.682 50.6381C146.628 50.7038 145.838 51.5576 145.838 52.5428ZM84.5401 48.2738C84.4743 48.2738 84.5401 48.2738 84.5401 48.2738V52.8055C83.75 53.0025 83.2233 53.7249 83.2233 54.5787C83.2233 55.5639 84.0134 56.4177 85.001 56.4177C85.9886 56.4177 86.7787 55.6296 86.7787 54.5787C86.7787 53.7249 86.1861 53.0025 85.4619 52.8055V47.814C85.0668 48.0111 84.8035 48.1424 84.5401 48.2738ZM85.7911 47.6827L91.3218 53.3966V59.4388H92.2435V53.0682L86.647 47.3543C86.3837 47.3543 86.0545 47.4856 85.7911 47.6827ZM136.95 46.5662C136.16 46.7632 135.633 47.4856 135.633 48.3394C135.633 49.3246 136.423 50.1784 137.411 50.1784C138.398 50.1784 139.188 49.3903 139.188 48.3394C139.188 47.4856 138.596 46.7632 137.872 46.5662V44.2675C137.542 44.2018 137.279 44.0705 136.95 44.0048V46.5662ZM100.276 42.6912C100.144 42.7569 99.947 42.7569 99.8153 42.8226V48.3394L104.292 52.8711C104.161 53.1338 104.029 53.4622 104.029 53.7906C104.029 54.7758 104.819 55.6296 105.807 55.6296C106.794 55.6296 107.585 54.8414 107.585 53.7906C107.585 52.8055 106.794 51.9517 105.807 51.9517C105.478 51.9517 105.148 52.0173 104.885 52.2144L100.737 47.9454V42.5599C100.605 42.6256 100.408 42.6256 100.276 42.6912ZM126.415 44.5302V51.689C125.625 51.886 125.098 52.6084 125.098 53.4622C125.098 54.4474 125.888 55.3012 126.876 55.3012C127.864 55.3012 128.654 54.5131 128.654 53.4622C128.654 52.6084 128.061 51.886 127.337 51.689V44.1361L124.637 41.3777C124.177 41.312 123.716 41.2464 123.189 41.2464L126.415 44.5302ZM117.132 47.8797C116.341 48.0767 115.815 48.7992 115.815 49.653C115.815 50.6381 116.605 51.4919 117.592 51.4919C118.58 51.4919 119.37 50.7038 119.37 49.653C119.37 48.7992 118.778 48.0767 118.053 47.8797V40.918C117.724 40.918 117.461 40.918 117.132 40.918V47.8797Z" fill="white"/>
</mask>
<g mask="url(#mask1_5172_14405)">
<path d="M187.713 40.918H45.2324V183.765H187.713V40.918Z" fill="url(#paint1_linear_5172_14405)"/>
</g>
</g>
<defs>
<linearGradient id="paint0_linear_5172_14405" x1="-0.0142112" y1="115.001" x2="233.962" y2="115.001" gradientUnits="userSpaceOnUse">
<stop stop-color="#A8E6BA"/>
<stop offset="0.1" stop-color="#A4E5BA"/>
<stop offset="0.2042" stop-color="#97E1B8"/>
<stop offset="0.3104" stop-color="#82DAB6"/>
<stop offset="0.4173" stop-color="#65D0B3"/>
<stop offset="0.5178" stop-color="#43C5AF"/>
<stop offset="0.5206" stop-color="#42C4AF"/>
<stop offset="0.7283" stop-color="#1E9FBC"/>
<stop offset="0.8954" stop-color="#0888C4"/>
<stop offset="1" stop-color="#007FC7"/>
</linearGradient>
<linearGradient id="paint1_linear_5172_14405" x1="45.2133" y1="112.375" x2="187.69" y2="112.375" gradientUnits="userSpaceOnUse">
<stop stop-color="#C2EDCF"/>
<stop offset="0.248" stop-color="#C2EDCF"/>
<stop offset="0.4437" stop-color="#B4E4D1"/>
<stop offset="0.4939" stop-color="#AFE1D2"/>
<stop offset="0.6888" stop-color="#8BC6E1"/>
<stop offset="0.7187" stop-color="#85C1E4"/>
<stop offset="1" stop-color="#85C1E4"/>
</linearGradient>
<clipPath id="clip0_5172_14405">
<rect width="234" height="230" fill="white"/>
</clipPath>
</defs>
</svg>
