<svg width="395" height="258" viewBox="0 0 395 258" fill="none" xmlns="http://www.w3.org/2000/svg">
<g filter="url(#filter0_d_5340_4694)">
<rect x="4" width="387" height="250" rx="10" fill="#154678"/>
<rect x="41.2231" y="90.2051" width="93.8437" height="68.5899" rx="10.5759" fill="white"/>
<rect x="41.2231" y="90.2051" width="93.8437" height="68.5899" rx="10.5759" stroke="#154678" stroke-width="1.41012"/>
<path d="M106.219 109.25H96.2781C94.1449 109.25 92.0595 109.863 90.2651 111.018L88.1449 112.378L86.0247 111.018C84.2321 109.863 82.1443 109.249 80.0116 109.25H70.071C69.302 109.25 68.6807 109.871 68.6807 110.64V135.318C68.6807 136.087 69.302 136.708 70.071 136.708H80.0116C82.1449 136.708 84.2303 137.321 86.0247 138.477L87.9537 139.719C88.0102 139.754 88.0754 139.776 88.1405 139.776C88.2057 139.776 88.2709 139.758 88.3274 139.719L90.2564 138.477C92.0551 137.321 94.1449 136.708 96.2781 136.708H106.219C106.988 136.708 107.609 136.087 107.609 135.318V110.64C107.609 109.871 106.988 109.25 106.219 109.25ZM80.0116 133.58H71.8088V112.378H80.0116C81.5496 112.378 83.0442 112.817 84.3346 113.647L86.4548 115.007L86.7546 115.202V135.275C84.6865 134.162 82.3751 133.58 80.0116 133.58ZM104.481 133.58H96.2781C93.9146 133.58 91.6033 134.162 89.5352 135.275V115.202L89.835 115.007L91.9552 113.647C93.2456 112.817 94.7401 112.378 96.2781 112.378H104.481V133.58ZM83.1441 117.939H75.0717C74.9023 117.939 74.7632 118.087 74.7632 118.265V120.22C74.7632 120.398 74.9023 120.546 75.0717 120.546H83.1398C83.3092 120.546 83.4483 120.398 83.4483 120.22V118.265C83.4526 118.087 83.3136 117.939 83.1441 117.939ZM92.8372 118.265V120.22C92.8372 120.398 92.9762 120.546 93.1456 120.546H101.214C101.383 120.546 101.522 120.398 101.522 120.22V118.265C101.522 118.087 101.383 117.939 101.214 117.939H93.1456C92.9762 117.939 92.8372 118.087 92.8372 118.265ZM83.1441 124.022H75.0717C74.9023 124.022 74.7632 124.17 74.7632 124.348V126.303C74.7632 126.481 74.9023 126.629 75.0717 126.629H83.1398C83.3092 126.629 83.4483 126.481 83.4483 126.303V124.348C83.4526 124.17 83.3136 124.022 83.1441 124.022ZM101.218 124.022H93.1456C92.9762 124.022 92.8372 124.17 92.8372 124.348V126.303C92.8372 126.481 92.9762 126.629 93.1456 126.629H101.214C101.383 126.629 101.522 126.481 101.522 126.303V124.348C101.527 124.17 101.388 124.022 101.218 124.022Z" fill="#154678"/>
<rect x="150.578" y="90.2051" width="93.8437" height="68.5899" rx="10.5759" fill="white"/>
<rect x="150.578" y="90.2051" width="93.8437" height="68.5899" rx="10.5759" stroke="#154678" stroke-width="1.41012"/>
<path d="M194.472 131.695L203.135 124.887C203.193 124.841 203.24 124.782 203.272 124.716C203.304 124.649 203.321 124.576 203.321 124.502C203.321 124.428 203.304 124.355 203.272 124.289C203.24 124.222 203.193 124.164 203.135 124.118L194.472 117.305C194.15 117.053 193.677 117.279 193.677 117.687V131.308C193.677 131.716 194.15 131.947 194.472 131.695Z" fill="#154678"/>
<path d="M213.489 107.121H181.512C180.743 107.121 180.122 107.742 180.122 108.511V140.488C180.122 141.257 180.743 141.879 181.512 141.879H213.489C214.258 141.879 214.879 141.257 214.879 140.488V108.511C214.879 107.742 214.258 107.121 213.489 107.121ZM211.751 138.75H183.25V110.249H211.751V138.75Z" fill="#154678"/>
<rect x="259.933" y="90.2051" width="93.8437" height="68.5899" rx="10.5759" fill="white"/>
<rect x="259.933" y="90.2051" width="93.8437" height="68.5899" rx="10.5759" stroke="#154678" stroke-width="1.41012"/>
<path d="M311.804 107.25C311.547 107.25 311.287 107.32 311.048 107.48L295.646 117.547H288.52C288.138 117.547 287.825 117.86 287.825 118.242V130.755C287.825 131.137 288.138 131.45 288.52 131.45H295.646L311.048 141.517C311.287 141.673 311.552 141.747 311.804 141.747C312.529 141.747 313.198 141.169 313.198 140.352V108.645C313.198 107.828 312.529 107.25 311.804 107.25ZM310.07 137.141L297.357 128.83L296.575 128.322H290.953V120.675H296.575L297.353 120.167L310.07 111.855V137.141ZM325.19 122.934H319.628C319.246 122.934 318.933 123.247 318.933 123.629V125.367C318.933 125.75 319.246 126.063 319.628 126.063H325.19C325.572 126.063 325.885 125.75 325.885 125.367V123.629C325.885 123.247 325.572 122.934 325.19 122.934ZM323.369 134.309L318.577 131.541C318.498 131.496 318.411 131.467 318.321 131.455C318.231 131.444 318.14 131.45 318.052 131.474C317.965 131.498 317.883 131.539 317.811 131.594C317.739 131.65 317.679 131.719 317.634 131.798L316.77 133.296C316.578 133.627 316.691 134.052 317.022 134.244L321.814 137.011C321.892 137.056 321.979 137.085 322.069 137.097C322.159 137.108 322.251 137.102 322.338 137.078C322.426 137.054 322.508 137.014 322.58 136.958C322.651 136.903 322.711 136.834 322.757 136.755L323.621 135.256C323.812 134.926 323.695 134.5 323.369 134.309ZM317.63 117.199C317.675 117.278 317.735 117.347 317.807 117.403C317.879 117.458 317.961 117.499 318.048 117.523C318.136 117.547 318.227 117.553 318.317 117.541C318.407 117.53 318.494 117.501 318.573 117.456L323.365 114.688C323.695 114.497 323.808 114.071 323.617 113.741L322.757 112.246C322.711 112.168 322.651 112.099 322.58 112.043C322.508 111.988 322.426 111.947 322.338 111.923C322.251 111.899 322.159 111.893 322.069 111.904C321.979 111.916 321.892 111.945 321.814 111.99L317.022 114.758C316.863 114.85 316.747 115.002 316.7 115.179C316.653 115.357 316.678 115.546 316.77 115.705L317.63 117.199Z" fill="#154678"/>
</g>
<defs>
<filter id="filter0_d_5340_4694" x="0" y="0" width="395" height="258" filterUnits="userSpaceOnUse" color-interpolation-filters="sRGB">
<feFlood flood-opacity="0" result="BackgroundImageFix"/>
<feColorMatrix in="SourceAlpha" type="matrix" values="0 0 0 0 0 0 0 0 0 0 0 0 0 0 0 0 0 0 127 0" result="hardAlpha"/>
<feOffset dy="4"/>
<feGaussianBlur stdDeviation="2"/>
<feComposite in2="hardAlpha" operator="out"/>
<feColorMatrix type="matrix" values="0 0 0 0 0 0 0 0 0 0 0 0 0 0 0 0 0 0 0.25 0"/>
<feBlend mode="normal" in2="BackgroundImageFix" result="effect1_dropShadow_5340_4694"/>
<feBlend mode="normal" in="SourceGraphic" in2="effect1_dropShadow_5340_4694" result="shape"/>
</filter>
</defs>
</svg>