<svg fill="none" height="69" viewBox="0 0 1280 69" width="1280" xmlns="http://www.w3.org/2000/svg" xmlns:xlink="http://www.w3.org/1999/xlink"><clipPath id="a"><path d="m0 0h1280v69h-1280z"/></clipPath><g clip-path="url(#a)" fill="#8fdff4" fill-opacity=".3"><path clip-rule="evenodd" d="m1073.85 66.0256c-.8-.0798-1.56-.3821-2.19-.8721-.63-.4901-1.12-1.1486-1.4-1.9004s-.34-1.5668-.18-2.3525c.16-.7858.54-1.511 1.09-2.0928.55-.5819 1.25-.9977 2.03-1.1992v-41.9053c-.79-.2223-1.51-.6704-2.07-1.2969-.31-.3545-.55-.7556-.73-1.1846-.35-.7366-.49-1.5612-.38-2.3789.13-1.03703.63-1.99052 1.42-2.68161.78-.69109 1.79-1.07324 2.83-1.07324 1.05.00012 2.06.38226 2.84 1.07325.49.43486.88.97321 1.12 1.57128.12.2429.21.49732.28.76072h11.06c.23-.91915.77-1.73397 1.52-2.31638.75-.58243 1.67-.89994 2.62-.90137.8-.00186 1.58.22167 2.26.64454.68.42286 1.23 1.0286 1.59 1.74804.35.71947.5 1.52417.42 2.32227-.08.798-.38 1.5574-.87 2.1924s-1.15 1.1198-1.9 1.3994c-.75.2795-1.57.3432-2.35.1826-.79-.1606-1.51-.5387-2.09-1.0908s-1-1.2568-1.2-2.0332h-11.06c-.26 1.0121-.88 1.8947-1.75 2.4814-.43.2948-.91.5047-1.41.6241v41.8623c.91.2356 1.73.771 2.31 1.5205.58.7494.9 1.6709.9 2.6201 0 .8021-.22 1.5889-.64 2.2705-.43.6816-1.03 1.2313-1.75 1.5859-.72.3547-1.52.4997-2.32.42z" fill-rule="evenodd"/><path d="m1109.41-32.2857v58.583l-.02.0296c1.05.262 1.97.8985 2.58 1.7894s.87 1.9748.74 3.0474-.65 2.0599-1.46 2.7759-1.85 1.1112-2.93 1.1112-2.12-.3952-2.93-1.1112-1.33-1.7033-1.46-2.7759.13-2.1565.74-3.0474c.62-.8909 1.53-1.5274 2.58-1.7894v-56.4428h-12.46v17.7121c1.01.2614 1.89.8829 2.48 1.7482.58.86523.83 1.91477.7 2.95186s-.63 1.99054-1.42 2.68162c-.78.69109-1.79 1.07237-2.83 1.07237-1.05 0-2.06-.38128-2.84-1.07237-.78-.69108-1.29-1.64453-1.42-2.68162s.12-2.08663.7-2.95186c.59-.8653 1.47-1.4868 2.48-1.7482v-19.8819z"/><path d="m1245.68-55.6539c.8-.8056 1.89-1.2581 3.03-1.2581l.01.0295c1.1.046 2.15.5182 2.92 1.318.76.7998 1.19 1.8652 1.19 2.9735 0 1.1084-.43 2.1738-1.19 2.9736-.77.7998-1.82 1.272-2.92 1.318-.77-.0015-1.52-.2134-2.17-.6126l-14.01 14.0222v66.3837c1.05.2613 1.96.8972 2.58 1.788.61.8908.87 1.9749.74 3.0479s-.65 2.0608-1.46 2.7771c-.81.7164-1.85 1.1118-2.93 1.1118s-2.12-.3954-2.93-1.1118c-.81-.7163-1.33-1.7041-1.46-2.7771s.13-2.1571.75-3.0479c.61-.8908 1.52-1.5267 2.57-1.788v-66.3837l-13.76-13.7713c-.91.55-1.98.7476-3.03.5556-1.04-.1921-1.98-.7605-2.64-1.5981-.65-.8375-.98-1.8861-.92-2.948.07-1.0618.52-2.0633 1.27-2.8155.75-.7523 1.75-1.2031 2.81-1.2674s2.11.2623 2.95.9181c.83.6559 1.4 1.5957 1.59 2.642.2 1.0463 0 2.1267-.55 3.0373l13.31 13.2841 13.59-13.6014c-.39-.6532-.6-1.4003-.6-2.1624 0-1.1391.45-2.2316 1.26-3.0371z"/><path d="m1019.57 6.70068c.75-.58248 1.67-.89931 2.62-.90068.8-.00188 1.58.22129 2.27.64415.68.42287 1.23 1.02845 1.58 1.74795.35.71949.5 1.52404.42 2.3222-.08.7982-.38 1.558-.87 2.193-.49.6351-1.15 1.1199-1.9 1.3995s-1.56.3426-2.35.182-1.51-.5385-2.09-1.0906c-.58-.5522-1-1.2565-1.2-2.0329h-28.753c-.261 1.0122-.882 1.8944-1.746 2.4811-.865.5868-1.913.8378-2.949.7061-1.036-.1318-1.989-.6372-2.679-1.4216-.691-.7844-1.072-1.794-1.072-2.8394 0-1.04542.381-2.05496 1.072-2.83937.69-.78442 1.643-1.28986 2.679-1.42159s2.084.11931 2.949.70605c.864.58673 1.485 1.46889 1.746 2.48112l28.753-.00001c.24-.91947.77-1.73454 1.52-2.31702z"/><path d="m1041.69-27.59c.75-.5822 1.67-.8995 2.62-.9022.8-.0019 1.58.2213 2.27.6442.68.4228 1.22 1.0284 1.58 1.7479.35.7195.5 1.5241.42 2.3222-.08.7982-.38 1.558-.87 2.193-.49.6351-1.15 1.12-1.9 1.3995-.75.2796-1.57.3426-2.35.182-.79-.1606-1.51-.5385-2.09-1.0906-.58-.5522-1-1.2565-1.2-2.0329h-17.8l-14.21-14.2214h-38.71v43.01109c1.047.26207 1.963.89853 2.574 1.78944s.875 1.97479.743 3.04737c-.131 1.0726-.651 2.0599-1.459 2.7759-.809.716-1.851 1.1112-2.931 1.1112s-2.122-.3952-2.931-1.1112-1.328-1.7033-1.46-2.7759c-.132-1.07258.133-2.15646.744-3.04737s1.527-1.52737 2.574-1.78944v-45.15869h41.736l14.21 14.2214h16.92c.24-.9188.77-1.7332 1.52-2.3155z"/><path d="m1151.53 29.1484c-1.08 0-2.12-.3954-2.93-1.1113s-1.33-1.703-1.46-2.7754c-.13-1.0726.13-2.1569.74-3.0478s1.53-1.527 2.58-1.7891v-68.2881l27.23-27.2617v-40.465l-7.32-7.213c-.68.418-1.48.659-2.33.659-2.44 0-4.42-1.982-4.42-4.427 0-2.446 1.98-4.428 4.42-4.428 2.45 0 4.43 1.982 4.43 4.428 0 .821-.23 1.589-.62 2.249l7.99 7.846v42.2367l-27.24 27.2618v67.4023c1.05.2621 1.97.8982 2.58 1.7891s.87 1.9753.74 3.0478-.65 2.0595-1.46 2.7754-1.85 1.1113-2.93 1.1113z"/><path d="m1063.59-46.431c.79-.6885 1.8-1.0658 2.84-1.0611 1.04-.0029 2.05.3757 2.84 1.0648.78.689 1.28 1.6409 1.42 2.6765.13 1.0356-.12 2.0836-.71 2.9468-.59.8631-1.47 1.4819-2.48 1.74v30.56086l-13.9 13.9262v20.43544c1.01.2613 1.89.8829 2.47 1.7481.59.8653.84 1.9148.71 2.9519s-.64 1.9906-1.42 2.6816c-.78.6911-1.79 1.0724-2.84 1.0724-1.04 0-2.05-.3813-2.83-1.0724-.79-.691-1.29-1.6445-1.42-2.6816-.14-1.0371.11-2.0866.7-2.9519.59-.8652 1.47-1.4868 2.48-1.7481v-21.32844l13.9-13.91882v-29.67524c-1.01-.2582-1.89-.8776-2.47-1.7415-.59-.864-.84-1.9128-.71-2.949s.64-1.9881 1.42-2.6765z"/><path d="m1173.78-19.9327 13.9 13.9262v18.5978c1.01.2605 1.89.8807 2.48 1.7444.58.8637.83 1.9116.7 2.9471s-.63 1.9875-1.41 2.6776c-.79.6901-1.79 1.0708-2.84 1.0708-1.04 0-2.05-.3807-2.83-1.0708s-1.28-1.6421-1.42-2.6776c-.13-1.0355.12-2.0834.71-2.9471.58-.8637 1.46-1.4839 2.47-1.7444v-17.7122l-13.91-13.9262v-21.321c-1.01-.2614-1.89-.8829-2.48-1.7482-.58-.8652-.83-1.9148-.7-2.9519.13-1.037.63-1.9905 1.42-2.6816.78-.6911 1.79-1.0723 2.83-1.0723 1.05 0 2.06.3812 2.84 1.0723.79.6911 1.29 1.6446 1.42 2.6816.13 1.0371-.12 2.0867-.7 2.9519-.59.8653-1.47 1.4868-2.48 1.7482z"/><path d="m1210.35-13.7945c.77-.6897 1.78-1.0723 2.82-1.0765 1.04.0025 2.04.3838 2.82 1.0728.78.6891 1.28 1.6387 1.42 2.6717.13 1.033-.12 2.07872-.7 2.94191-.58.8632-1.46 1.48489-2.47 1.74902v32.61257l-14.01 13.9188v20.4502c1.02.2613 1.9.8829 2.48 1.7481.59.8653.84 1.9148.71 2.9519s-.64 1.9906-1.42 2.6816c-.79.6911-1.79 1.0724-2.84 1.0724-1.04 0-2.05-.3813-2.83-1.0724-.79-.691-1.29-1.6445-1.42-2.6816-.14-1.0371.11-2.0866.7-2.9519.59-.8652 1.47-1.4868 2.48-1.7481v-21.321l14.01-13.9262v-31.73437c-1.01-.26395-1.88-.88505-2.47-1.74748-.58-.86242-.83-1.90725-.7-2.93975.14-1.0325.64-1.9821 1.42-2.6717z"/><path d="m1266.64-14.0304-19.07 13.926234v18.597766c-1.01.2605-1.89.8808-2.48 1.7445-.58.8637-.83 1.9115-.7 2.947s.63 1.9876 1.42 2.6777c.78.69 1.79 1.0708 2.83 1.0708s2.05-.3808 2.83-1.0708c.78-.6901 1.29-1.6422 1.42-2.6777s-.12-2.0833-.71-2.947c-.58-.8637-1.46-1.484-2.47-1.7445v-17.712159l19.07-13.926241v-21.321c1.01-.2613 1.89-.8829 2.48-1.7481.59-.8653.84-1.9148.71-2.9519-.14-1.0371-.64-1.9905-1.42-2.6816-.79-.6911-1.8-1.0724-2.84-1.0724-1.05 0-2.05.3813-2.84 1.0724-.78.6911-1.29 1.6445-1.42 2.6816s.12 2.0866.71 2.9519c.58.8652 1.47 1.4868 2.48 1.7481z"/><path clip-rule="evenodd" d="m443.239 66.0256c-.799-.0798-1.561-.382-2.198-.8721-.636-.49-1.122-1.1487-1.402-1.9004s-.344-1.5668-.183-2.3525c.161-.7859.541-1.5109 1.094-2.0928.553-.5818 1.259-.9977 2.037-1.1992v-41.9053c-.797-.2223-1.518-.6703-2.071-1.2969-.315-.3568-.566-.7602-.745-1.1923-.347-.7347-.482-1.5564-.378-2.3711.132-1.03709.639-1.99059 1.425-2.68168s1.798-1.07324 2.845-1.07324c1.048.00011 2.059.38225 2.845 1.07324.492.43295.875.96856 1.125 1.56348.117.24518.21.5024.279.7686h11.094c.236-.91947.772-1.734 1.523-2.31645.751-.58248 1.675-.9 2.626-.90137.804-.00181 1.592.22183 2.275.64453.683.42287 1.234 1.02856 1.59 1.74805.355.71944.501 1.52424.421 2.32224-.08.7981-.383 1.5574-.874 2.1924-.492.6351-1.151 1.1199-1.905 1.3994-.753.2795-1.57.3432-2.357.1826-.788-.1606-1.515-.5386-2.098-1.0908-.583-.5521-.999-1.2568-1.201-2.0332h-11.094c-.262 1.0122-.885 1.8947-1.752 2.4815-.435.2947-.918.5047-1.422.624v41.8623c.922.2357 1.739.771 2.323 1.5205.583.7494.901 1.671.902 2.6201.002.8022-.222 1.5889-.645 2.2705-.424.6815-1.031 1.2314-1.751 1.586-.721.3545-1.528.4996-2.328.4199z" fill-rule="evenodd"/><path d="m478.906-32.2857v58.583l-.014.0296c1.05.262 1.969.8985 2.582 1.7894s.878 1.9748.746 3.0474c-.133 1.0726-.653 2.0599-1.465 2.7759-.811.716-1.856 1.1112-2.939 1.1112s-2.129-.3952-2.94-1.1112c-.812-.716-1.332-1.7033-1.465-2.7759-.132-1.0726.133-2.1565.746-3.0474s1.532-1.5274 2.582-1.7894v-56.4428h-12.498v17.7121c1.014.2614 1.898.8829 2.486 1.7482.588.86523.84 1.91477.708 2.95186s-.639 1.99054-1.425 2.68162c-.786.69109-1.798 1.07237-2.845 1.07237-1.048 0-2.06-.38128-2.846-1.07237-.786-.69108-1.292-1.64453-1.424-2.68162s.119-2.08663.707-2.95186c.588-.8653 1.472-1.4868 2.487-1.7482v-19.8819z"/><path d="m615.595-55.6539c.807-.8056 1.902-1.2581 3.043-1.2581l.008.0295c1.109.046 2.158.5182 2.927 1.318s1.198 1.8652 1.198 2.9735c0 1.1084-.429 2.1738-1.198 2.9736s-1.818 1.272-2.927 1.318c-.768-.0015-1.52-.2134-2.175-.6126l-14.052 14.0222v66.3837c1.052.2613 1.971.8972 2.585 1.788.613.8908.879 1.9749.747 3.0479-.131 1.073-.652 2.0608-1.463 2.7771-.812.7164-1.858 1.1118-2.941 1.1118s-2.129-.3954-2.94-1.1118c-.812-.7163-1.332-1.7041-1.464-2.7771s.134-2.1571.748-3.0479c.613-.8908 1.533-1.5267 2.584-1.788v-66.3837l-13.801-13.7713c-.912.55-1.995.7476-3.043.5556-1.049-.1921-1.991-.7605-2.648-1.5981-.657-.8375-.984-1.8861-.92-2.948.064-1.0618.516-2.0633 1.27-2.8155.754-.7523 1.758-1.2031 2.822-1.2674s2.115.2623 2.954.9181c.839.6559 1.409 1.5957 1.601 2.642.193 1.0463-.005 2.1267-.556 3.0373l13.356 13.2841 13.63-13.6014c-.393-.6532-.603-1.4003-.606-2.1624 0-1.1391.453-2.2316 1.261-3.0371z"/><path d="m388.791 6.70068c.751-.58248 1.674-.89931 2.626-.90068.804-.00188 1.592.22129 2.275.64415.683.42287 1.233 1.02845 1.589 1.74795.355.71949.501 1.52404.421 2.3222-.08.7982-.382 1.558-.873 2.193-.492.6351-1.151 1.1199-1.905 1.3995-.753.2796-1.57.3426-2.358.182-.787-.1606-1.514-.5385-2.097-1.0906-.583-.5522-.999-1.2565-1.201-2.0329h-28.843c-.262 1.0122-.885 1.8944-1.752 2.4811-.867.5868-1.919.8378-2.958.7061-1.04-.1318-1.995-.6372-2.688-1.4216-.692-.7844-1.074-1.794-1.074-2.8394 0-1.04542.382-2.05496 1.074-2.83937.693-.78442 1.648-1.28986 2.688-1.42159 1.039-.13173 2.091.11931 2.958.70605.867.58673 1.49 1.46889 1.752 2.48112l28.843-.00001c.236-.91947.772-1.73454 1.523-2.31702z"/><path d="m410.979-27.59c.751-.5822 1.674-.8995 2.625-.9022.804-.0019 1.592.2213 2.275.6442.683.4228 1.234 1.0284 1.589 1.7479.356.7195.502 1.5241.422 2.3222-.08.7982-.383 1.558-.874 2.193-.491.6351-1.151 1.12-1.904 1.3995-.754.2796-1.571.3426-2.358.182-.788-.1606-1.514-.5385-2.097-1.0906-.584-.5522-1-1.2565-1.202-2.0329h-17.86l-14.252-14.2214h-38.827v43.01109c1.051.26207 1.969.89853 2.582 1.78944s.878 1.97479.746 3.04737c-.132 1.0726-.653 2.0599-1.464 2.7759-.812.716-1.857 1.1112-2.94 1.1112s-2.129-.3952-2.94-1.1112-1.332-1.7033-1.464-2.7759c-.133-1.07258.133-2.15646.746-3.04737s1.531-1.52737 2.582-1.78944v-45.15869h41.867l14.251 14.2214h16.973c.238-.9188.774-1.7332 1.524-2.3155z"/><path d="m521.158 29.1484c-1.083 0-2.129-.3953-2.94-1.1113-.811-.7159-1.332-1.7031-1.464-2.7754-.132-1.0726.133-2.1569.746-3.0478s1.531-1.527 2.582-1.7891v-68.2881l27.319-27.2617v-40.465l-7.349-7.213c-.678.418-1.476.659-2.331.659-2.451 0-4.438-1.982-4.438-4.427 0-2.446 1.987-4.428 4.438-4.428 2.45 0 4.437 1.982 4.437 4.428 0 .821-.224 1.59-.615 2.25l8.011 7.845v42.2367l-27.32 27.2618v67.4023c1.051.2621 1.969.8983 2.582 1.7891.613.8909.879 1.9752.747 3.0478-.133 1.0725-.654 2.0595-1.465 2.7754-.812.7159-1.857 1.1113-2.94 1.1113z"/><path d="m432.95-46.431c.787-.6885 1.799-1.0658 2.846-1.0611 1.046-.0029 2.057.3757 2.843 1.0648.786.689 1.293 1.6409 1.424 2.6765.132 1.0356-.12 2.0836-.708 2.9468-.589.8631-1.473 1.4819-2.487 1.74v30.56086l-13.948 13.9262v20.43544c1.015.2613 1.899.8829 2.487 1.7481.588.8653.839 1.9148.707 2.9519s-.638 1.9906-1.425 2.6816c-.786.6911-1.797 1.0724-2.845 1.0724s-2.059-.3813-2.845-1.0724c-.786-.691-1.293-1.6445-1.425-2.6816s.12-2.0866.708-2.9519c.588-.8652 1.472-1.4868 2.486-1.7481v-21.32844l13.948-13.91882v-29.67524c-1.014-.2582-1.899-.8776-2.487-1.7415-.589-.864-.84-1.9128-.707-2.949.132-1.0362.64-1.9881 1.428-2.6765z"/><path d="m543.475-19.9327 13.948 13.9262v18.5978c1.013.2605 1.896.8807 2.483 1.7444s.839 1.9116.707 2.9471c-.131 1.0355-.637 1.9875-1.422 2.6776-.784.6901-1.794 1.0708-2.84 1.0708s-2.057-.3807-2.841-1.0708c-.785-.6901-1.291-1.6421-1.422-2.6776-.132-1.0355.12-2.0834.707-2.9471s1.47-1.4839 2.483-1.7444v-17.7122l-13.955-13.9262v-21.321c-1.015-.2614-1.899-.8829-2.487-1.7482-.588-.8652-.839-1.9148-.707-2.9519.132-1.037.638-1.9905 1.424-2.6816s1.798-1.0723 2.846-1.0723c1.047 0 2.059.3812 2.845 1.0723s1.293 1.6446 1.425 2.6816c.132 1.0371-.12 2.0867-.708 2.9519-.588.8653-1.472 1.4868-2.486 1.7482z"/><path d="m580.156-13.7945c.781-.6897 1.787-1.0723 2.83-1.0765 1.043.0025 2.05.3838 2.833 1.0728.782.6891 1.287 1.6387 1.419 2.6717s-.117 2.07872-.701 2.94191c-.584.8632-1.462 1.48489-2.472 1.74902v32.61257l-14.051 13.9188v20.4502c1.014.2613 1.898.8829 2.486 1.7481.588.8653.84 1.9148.708 2.9519s-.639 1.9906-1.425 2.6816c-.786.6911-1.798 1.0724-2.845 1.0724-1.048 0-2.06-.3813-2.846-1.0724-.786-.691-1.292-1.6445-1.424-2.6816s.119-2.0866.707-2.9519c.588-.8652 1.472-1.4868 2.486-1.7481v-21.321l14.052-13.9262v-31.73437c-1.009-.26395-1.887-.88505-2.471-1.74748-.583-.86242-.833-1.90725-.702-2.93975.132-1.0325.635-1.9821 1.416-2.6717z"/><path d="m636.619-14.0304-19.125 13.926234v18.597766c-1.013.2605-1.896.8808-2.483 1.7445s-.839 1.9115-.707 2.947c.131 1.0355.637 1.9876 1.422 2.6777.784.69 1.794 1.0708 2.84 1.0708s2.057-.3808 2.841-1.0708c.785-.6901 1.291-1.6422 1.422-2.6777.132-1.0355-.12-2.0833-.707-2.947s-1.47-1.484-2.483-1.7445v-17.712159l19.132-13.926241v-21.321c1.015-.2613 1.899-.8829 2.487-1.7481.588-.8653.839-1.9148.707-2.9519s-.638-1.9905-1.424-2.6816-1.798-1.0724-2.846-1.0724c-1.047 0-2.059.3813-2.845 1.0724s-1.293 1.6445-1.425 2.6816.12 2.0866.708 2.9519c.588.8652 1.472 1.4868 2.486 1.7481z"/><path clip-rule="evenodd" d="m756.239 66.0256c-.799-.0798-1.561-.382-2.198-.8721-.636-.49-1.122-1.1487-1.402-1.9004s-.344-1.5668-.183-2.3525c.161-.7859.541-1.5109 1.094-2.0928.553-.5818 1.259-.9977 2.037-1.1992v-41.9053c-.797-.2223-1.518-.6703-2.071-1.2969-.315-.3568-.566-.7602-.745-1.1923-.347-.7347-.482-1.5564-.378-2.3711.132-1.03709.639-1.99059 1.425-2.68168s1.798-1.07324 2.845-1.07324c1.048.00011 2.059.38225 2.845 1.07324.492.43295.875.96856 1.125 1.56348.117.24518.21.5024.279.7686h11.094c.236-.91947.772-1.734 1.523-2.31645.751-.58248 1.675-.9 2.626-.90137.804-.00181 1.592.22183 2.275.64453.683.42287 1.234 1.02856 1.59 1.74805.355.71944.501 1.52424.421 2.32224-.08.7981-.383 1.5574-.874 2.1924-.492.6351-1.151 1.1199-1.905 1.3994-.753.2795-1.57.3432-2.357.1826-.788-.1606-1.515-.5386-2.098-1.0908-.583-.5521-.999-1.2568-1.201-2.0332h-11.094c-.262 1.0122-.885 1.8947-1.752 2.4815-.435.2947-.918.5047-1.422.624v41.8623c.922.2357 1.739.771 2.323 1.5205.583.7494.901 1.671.902 2.6201.002.8022-.222 1.5889-.645 2.2705-.424.6815-1.031 1.2314-1.751 1.586-.721.3545-1.528.4996-2.328.4199z" fill-rule="evenodd"/><path d="m791.906-32.2857v58.583l-.014.0296c1.05.262 1.969.8985 2.582 1.7894s.878 1.9748.746 3.0474c-.133 1.0726-.653 2.0599-1.465 2.7759-.811.716-1.856 1.1112-2.939 1.1112s-2.129-.3952-2.94-1.1112c-.812-.716-1.332-1.7033-1.465-2.7759-.132-1.0726.133-2.1565.746-3.0474s1.532-1.5274 2.582-1.7894v-56.4428h-12.498v17.7121c1.014.2614 1.898.8829 2.486 1.7482.588.86523.84 1.91477.708 2.95186s-.639 1.99054-1.425 2.68162c-.786.69109-1.798 1.07237-2.845 1.07237-1.048 0-2.06-.38128-2.846-1.07237-.786-.69108-1.292-1.64453-1.424-2.68162s.119-2.08663.707-2.95186c.588-.8653 1.472-1.4868 2.487-1.7482v-19.8819z"/><path d="m928.595-55.6539c.807-.8056 1.902-1.2581 3.043-1.2581l.008.0295c1.109.046 2.158.5182 2.927 1.318s1.198 1.8652 1.198 2.9735c0 1.1084-.429 2.1738-1.198 2.9736s-1.818 1.272-2.927 1.318c-.768-.0015-1.52-.2134-2.175-.6126l-14.052 14.0222v66.3837c1.052.2613 1.971.8972 2.585 1.788.613.8908.879 1.9749.747 3.0479-.131 1.073-.652 2.0608-1.463 2.7771-.812.7164-1.858 1.1118-2.941 1.1118s-2.129-.3954-2.94-1.1118c-.812-.7163-1.332-1.7041-1.464-2.7771s.134-2.1571.748-3.0479c.613-.8908 1.533-1.5267 2.584-1.788v-66.3837l-13.801-13.7713c-.912.55-1.995.7476-3.043.5556-1.049-.1921-1.991-.7605-2.648-1.5981-.657-.8375-.984-1.8861-.92-2.948.064-1.0618.516-2.0633 1.27-2.8155.754-.7523 1.758-1.2031 2.822-1.2674s2.115.2623 2.954.9181c.839.6559 1.409 1.5957 1.601 2.642.193 1.0463-.005 2.1267-.556 3.0373l13.356 13.2841 13.63-13.6014c-.393-.6532-.603-1.4003-.606-2.1624 0-1.1391.453-2.2316 1.261-3.0371z"/><path d="m701.791 6.70068c.751-.58248 1.674-.89931 2.626-.90068.804-.00188 1.592.22129 2.275.64415.683.42287 1.233 1.02845 1.589 1.74795.355.71949.501 1.52404.421 2.3222-.08.7982-.382 1.558-.873 2.193-.492.6351-1.151 1.1199-1.905 1.3995-.753.2796-1.57.3426-2.358.182-.787-.1606-1.514-.5385-2.097-1.0906-.583-.5522-.999-1.2565-1.201-2.0329h-28.843c-.262 1.0122-.885 1.8944-1.752 2.4811-.867.5868-1.919.8378-2.958.7061-1.04-.1318-1.995-.6372-2.688-1.4216-.692-.7844-1.074-1.794-1.074-2.8394 0-1.04542.382-2.05496 1.074-2.83937.693-.78442 1.648-1.28986 2.688-1.42159 1.039-.13173 2.091.11931 2.958.70605.867.58673 1.49 1.46889 1.752 2.48112l28.843-.00001c.236-.91947.772-1.73454 1.523-2.31702z"/><path d="m723.979-27.59c.751-.5822 1.674-.8995 2.625-.9022.804-.0019 1.592.2213 2.275.6442.683.4228 1.234 1.0284 1.589 1.7479.356.7195.502 1.5241.422 2.3222-.08.7982-.383 1.558-.874 2.193-.491.6351-1.151 1.12-1.904 1.3995-.754.2796-1.571.3426-2.358.182-.788-.1606-1.514-.5385-2.097-1.0906-.584-.5522-1-1.2565-1.202-2.0329h-17.86l-14.252-14.2214h-38.827v43.01109c1.051.26207 1.969.89853 2.582 1.78944s.878 1.97479.746 3.04737c-.132 1.0726-.653 2.0599-1.464 2.7759-.812.716-1.857 1.1112-2.94 1.1112s-2.129-.3952-2.94-1.1112-1.332-1.7033-1.464-2.7759c-.133-1.07258.133-2.15646.746-3.04737s1.531-1.52737 2.582-1.78944v-45.15869h41.867l14.251 14.2214h16.973c.238-.9188.774-1.7332 1.524-2.3155z"/><path d="m834.158 29.1484c-1.083 0-2.129-.3953-2.94-1.1113-.811-.7159-1.332-1.7031-1.464-2.7754-.132-1.0726.133-2.1569.746-3.0478s1.531-1.527 2.582-1.7891v-68.2881l27.319-27.2617v-40.465l-7.349-7.213c-.678.418-1.476.659-2.331.659-2.451 0-4.438-1.982-4.438-4.427 0-2.446 1.987-4.428 4.438-4.428 2.45 0 4.437 1.982 4.437 4.428 0 .821-.224 1.59-.615 2.25l8.011 7.845v42.2367l-27.32 27.2618v67.4023c1.051.2621 1.969.8983 2.582 1.7891.613.8909.879 1.9752.747 3.0478-.133 1.0725-.654 2.0595-1.465 2.7754-.812.7159-1.857 1.1113-2.94 1.1113z"/><path d="m745.95-46.431c.787-.6885 1.799-1.0658 2.846-1.0611 1.046-.0029 2.057.3757 2.843 1.0648.786.689 1.293 1.6409 1.424 2.6765.132 1.0356-.12 2.0836-.708 2.9468-.589.8631-1.473 1.4819-2.487 1.74v30.56086l-13.948 13.9262v20.43544c1.015.2613 1.899.8829 2.487 1.7481.588.8653.839 1.9148.707 2.9519s-.638 1.9906-1.425 2.6816c-.786.6911-1.797 1.0724-2.845 1.0724s-2.059-.3813-2.845-1.0724c-.786-.691-1.293-1.6445-1.425-2.6816s.12-2.0866.708-2.9519c.588-.8652 1.472-1.4868 2.486-1.7481v-21.32844l13.948-13.91882v-29.67524c-1.014-.2582-1.899-.8776-2.487-1.7415-.589-.864-.84-1.9128-.707-2.949.132-1.0362.64-1.9881 1.428-2.6765z"/><path d="m856.475-19.9327 13.948 13.9262v18.5978c1.013.2605 1.896.8807 2.483 1.7444s.839 1.9116.707 2.9471c-.131 1.0355-.637 1.9875-1.422 2.6776-.784.6901-1.794 1.0708-2.84 1.0708s-2.057-.3807-2.841-1.0708c-.785-.6901-1.291-1.6421-1.422-2.6776-.132-1.0355.12-2.0834.707-2.9471s1.47-1.4839 2.483-1.7444v-17.7122l-13.955-13.9262v-21.321c-1.015-.2614-1.899-.8829-2.487-1.7482-.588-.8652-.839-1.9148-.707-2.9519.132-1.037.638-1.9905 1.424-2.6816s1.798-1.0723 2.846-1.0723c1.047 0 2.059.3812 2.845 1.0723s1.293 1.6446 1.425 2.6816c.132 1.0371-.12 2.0867-.708 2.9519-.588.8653-1.472 1.4868-2.486 1.7482z"/><path d="m893.156-13.7945c.781-.6897 1.787-1.0723 2.83-1.0765 1.043.0025 2.05.3838 2.833 1.0728.782.6891 1.287 1.6387 1.419 2.6717s-.117 2.07872-.701 2.94191c-.584.8632-1.462 1.48489-2.472 1.74902v32.61257l-14.051 13.9188v20.4502c1.014.2613 1.898.8829 2.486 1.7481.588.8653.84 1.9148.708 2.9519s-.639 1.9906-1.425 2.6816c-.786.6911-1.798 1.0724-2.845 1.0724-1.048 0-2.06-.3813-2.846-1.0724-.786-.691-1.292-1.6445-1.424-2.6816s.119-2.0866.707-2.9519c.588-.8652 1.472-1.4868 2.486-1.7481v-21.321l14.052-13.9262v-31.73437c-1.009-.26395-1.887-.88505-2.471-1.74748-.583-.86242-.833-1.90725-.702-2.93975.132-1.0325.635-1.9821 1.416-2.6717z"/><path d="m949.619-14.0304-19.125 13.926234v18.597766c-1.013.2605-1.896.8808-2.483 1.7445s-.839 1.9115-.707 2.947c.131 1.0355.637 1.9876 1.422 2.6777.784.69 1.794 1.0708 2.84 1.0708s2.057-.3808 2.841-1.0708c.785-.6901 1.291-1.6422 1.422-2.6777.132-1.0355-.12-2.0833-.707-2.947s-1.47-1.484-2.483-1.7445v-17.712159l19.132-13.926241v-21.321c1.015-.2613 1.899-.8829 2.487-1.7481.588-.8653.839-1.9148.707-2.9519s-.638-1.9905-1.424-2.6816-1.798-1.0724-2.846-1.0724c-1.047 0-2.059.3813-2.845 1.0724s-1.293 1.6445-1.425 2.6816.12 2.0866.708 2.9519c.588.8652 1.472 1.4868 2.486 1.7481z"/><path clip-rule="evenodd" d="m125.851 66.0256c-.798-.0798-1.556-.3821-2.191-.8721-.634-.4901-1.119-1.1486-1.398-1.9004s-.342-1.5668-.182-2.3525c.161-.7858.538-1.511 1.089-2.0928.552-.5819 1.256-.9977 2.031-1.1992v-41.9053c-.794-.2223-1.514-.6704-2.065-1.2969-.312-.3545-.559-.7556-.738-1.1846-.349-.7366-.484-1.5612-.38-2.3789.131-1.03703.636-1.99052 1.42-2.68161.783-.69109 1.792-1.07324 2.837-1.07324 1.044.00012 2.052.38226 2.836 1.07325.493.43486.876.97321 1.125 1.57128.114.2429.207.49732.275.76072h11.06c.235-.91915.769-1.73397 1.517-2.31638.749-.58243 1.67-.89994 2.618-.90137.802-.00186 1.588.22167 2.269.64454.681.42286 1.23 1.0286 1.584 1.74804.354.71947.499 1.52417.42 2.32227-.08.798-.382 1.5574-.871 2.1924-.49.635-1.148 1.1198-1.899 1.3994-.751.2795-1.565.3432-2.35.1826s-1.51-.5387-2.091-1.0908-.996-1.2568-1.197-2.0332h-11.06c-.261 1.0121-.882 1.8947-1.746 2.4814-.434.2948-.916.5047-1.418.6241v41.8623c.919.2356 1.732.771 2.314 1.5205.582.7494.899 1.6709.901 2.6201.002.8021-.221 1.5889-.644 2.2705-.422.6816-1.027 1.2313-1.746 1.5859-.719.3547-1.523.4997-2.32.42z" fill-rule="evenodd"/><path d="m161.409-32.2857v58.583l-.015.0296c1.048.262 1.963.8985 2.574 1.7894s.876 1.9748.744 3.0474-.651 2.0599-1.46 2.7759-1.851 1.1112-2.931 1.1112c-1.079 0-2.122-.3952-2.93-1.1112-.809-.716-1.328-1.7033-1.46-2.7759s.132-2.1565.744-3.0474c.611-.8909 1.526-1.5274 2.574-1.7894v-56.4428h-12.461v17.7121c1.012.2614 1.893.8829 2.479 1.7482.586.86523.837 1.91477.705 2.95186-.131 1.03709-.636 1.99054-1.42 2.68162-.783.69109-1.792 1.07237-2.836 1.07237-1.045 0-2.053-.38128-2.837-1.07237-.784-.69108-1.289-1.64453-1.42-2.68162-.132-1.03709.119-2.08663.705-2.95186.586-.8653 1.468-1.4868 2.479-1.7482v-19.8819z"/><path d="m297.675-55.6539c.805-.8056 1.896-1.2581 3.035-1.2581l.007.0295c1.106.046 2.152.5182 2.919 1.318.766.7998 1.194 1.8652 1.194 2.9735 0 1.1084-.428 2.1738-1.194 2.9736-.767.7998-1.813 1.272-2.919 1.318-.765-.0015-1.515-.2134-2.168-.6126l-14.008 14.0222v66.3837c1.048.2613 1.964.8972 2.576 1.788s.877 1.9749.745 3.0479c-.131 1.073-.65 2.0608-1.459 2.7771-.809.7164-1.851 1.1118-2.931 1.1118s-2.123-.3954-2.932-1.1118c-.809-.7163-1.328-1.7041-1.459-2.7771-.132-1.073.133-2.1571.745-3.0479s1.529-1.5267 2.577-1.788v-66.3837l-13.758-13.7713c-.91.55-1.989.7476-3.035.5556-1.045-.1921-1.984-.7605-2.639-1.5981-.655-.8375-.982-1.8861-.917-2.948.064-1.0618.514-2.0633 1.266-2.8155.751-.7523 1.752-1.2031 2.813-1.2674 1.06-.0643 2.108.2623 2.945.9181.836.6559 1.404 1.5957 1.596 2.642s-.005 2.1267-.555 3.0373l13.316 13.2841 13.588-13.6014c-.392-.6532-.601-1.4003-.605-2.1624 0-1.1391.453-2.2316 1.257-3.0371z"/><path d="m71.5703 6.70068c.7488-.58248 1.6697-.89931 2.6179-.90068.8014-.00188 1.5873.22129 2.2682.64415.681.42287 1.2298 1.02845 1.5841 1.74795.3543.71949.4999 1.52404.4202 2.3222-.0797.7982-.3815 1.558-.8711 2.193-.4896.6351-1.1473 1.1199-1.8984 1.3995s-1.5655.3426-2.3507.182c-.7851-.1606-1.5095-.5385-2.0908-1.0906-.5814-.5522-.9963-1.2565-1.1976-2.0329h-28.7544c-.2611 1.0122-.8821 1.8944-1.7465 2.4811-.8644.5868-1.9129.8378-2.949.7061-1.0361-.1318-1.9886-.6372-2.679-1.4216-.6905-.7844-1.0714-1.794-1.0714-2.8394 0-1.04542.3809-2.05496 1.0714-2.83937.6904-.78442 1.6429-1.28986 2.679-1.42159s2.0846.11931 2.949.70605c.8644.58673 1.4854 1.46889 1.7465 2.48112l28.7544-.00001c.2354-.91947.7695-1.73454 1.5182-2.31702z"/><path d="m93.6902-27.59c.7485-.5822 1.6687-.8995 2.6167-.9022.8014-.0019 1.5872.2213 2.2682.6442.6809.4228 1.2298 1.0284 1.5839 1.7479.354.7195.5 1.5241.42 2.3222-.079.7982-.381 1.558-.8707 2.193-.4896.6351-1.1474 1.12-1.8985 1.3995-.7511.2796-1.5655.3426-2.3507.182-.7851-.1606-1.5095-.5385-2.0908-1.0906-.5813-.5522-.9962-1.2565-1.1976-2.0329h-17.8056l-14.2076-14.2214h-38.7079v43.01109c1.0475.26207 1.963.89853 2.5741 1.78944s.8757 1.97479.7438 3.04737c-.1319 1.0726-.6511 2.0599-1.4599 2.7759-.8087.716-1.8511 1.1112-2.9307 1.1112-1.0797 0-2.1221-.3952-2.9308-1.1112s-1.328-1.7033-1.4599-2.7759c-.1319-1.07258.1327-2.15646.7438-3.04737s1.5267-1.52737 2.5741-1.78944v-45.15869h41.7381l14.2076 14.2214h16.9209c.2366-.9188.771-1.7332 1.5195-2.3155z"/><path d="m203.53 29.1484c-1.079 0-2.122-.3954-2.93-1.1113-.809-.7159-1.328-1.703-1.46-2.7754-.132-1.0726.133-2.1569.744-3.0478s1.527-1.527 2.574-1.7891v-68.2881l27.235-27.2617v-40.465l-7.327-7.213c-.675.418-1.471.659-2.324.659-2.443 0-4.424-1.982-4.424-4.427 0-2.446 1.981-4.428 4.424-4.428s4.424 1.982 4.424 4.428c0 .821-.224 1.589-.613 2.249l7.986 7.846v42.2367l-27.235 27.2618v67.4023c1.047.2621 1.963.8982 2.574 1.7891s.875 1.9753.743 3.0478-.651 2.0595-1.46 2.7754-1.851 1.1113-2.931 1.1113z"/><path d="m115.593-46.431c.785-.6885 1.794-1.0658 2.838-1.0611 1.043-.0029 2.051.3757 2.834 1.0648.784.689 1.289 1.6409 1.42 2.6765.132 1.0356-.12 2.0836-.706 2.9468-.587.8631-1.468 1.4819-2.479 1.74v30.56086l-13.905 13.9262v20.43544c1.011.2613 1.892.8829 2.478 1.7481.587.8653.837 1.9148.706 2.9519-.132 1.0371-.637 1.9906-1.421 2.6816-.783.6911-1.792 1.0724-2.836 1.0724-1.045 0-2.053-.3813-2.837-1.0724-.783-.691-1.288-1.6445-1.42-2.6816s.119-2.0866.705-2.9519c.587-.8652 1.468-1.4868 2.479-1.7481v-21.32844l13.905-13.91882v-29.67524c-1.011-.2582-1.893-.8776-2.479-1.7415-.587-.864-.838-1.9128-.705-2.949.132-1.0362.638-1.9881 1.423-2.6765z"/><path d="m225.778-19.9327 13.905 13.9262v18.5978c1.01.2605 1.89.8807 2.475 1.7444.586.8637.837 1.9116.705 2.9471-.131 1.0355-.635 1.9875-1.417 2.6776s-1.789 1.0708-2.832 1.0708-2.05-.3807-2.832-1.0708c-.783-.6901-1.287-1.6421-1.418-2.6776s.12-2.0834.705-2.9471c.586-.8637 1.466-1.4839 2.476-1.7444v-17.7122l-13.913-13.9262v-21.321c-1.011-.2614-1.893-.8829-2.479-1.7482-.586-.8652-.837-1.9148-.705-2.9519.132-1.037.636-1.9905 1.42-2.6816s1.792-1.0723 2.837-1.0723c1.044 0 2.053.3812 2.836 1.0723.784.6911 1.289 1.6446 1.421 2.6816.131 1.0371-.12 2.0867-.706 2.9519-.586.8653-1.467 1.4868-2.478 1.7482z"/><path d="m262.346-13.7945c.778-.6897 1.781-1.0723 2.821-1.0765 1.04.0025 2.044.3838 2.824 1.0728.78.6891 1.283 1.6387 1.415 2.6717s-.117 2.07872-.699 2.94191c-.581.8632-1.457 1.48489-2.464 1.74902v32.61257l-14.008 13.9188v20.4502c1.011.2613 1.892.8829 2.478 1.7481.587.8653.837 1.9148.706 2.9519-.132 1.0371-.637 1.9906-1.42 2.6816-.784.6911-1.793 1.0724-2.837 1.0724s-2.053-.3813-2.837-1.0724c-.783-.691-1.288-1.6445-1.42-2.6816s.119-2.0866.705-2.9519c.587-.8652 1.468-1.4868 2.479-1.7481v-21.321l14.009-13.9262v-31.73437c-1.006-.26395-1.882-.88505-2.464-1.74748-.582-.86242-.83-1.90725-.7-2.93975.131-1.0325.633-1.9821 1.412-2.6717z"/><path d="m318.636-14.0304-19.066 13.926234v18.597766c-1.01.2605-1.89.8808-2.475 1.7445-.586.8637-.837 1.9115-.705 2.947.131 1.0355.635 1.9876 1.417 2.6777.782.69 1.789 1.0708 2.832 1.0708s2.05-.3808 2.832-1.0708c.783-.6901 1.287-1.6422 1.418-2.6777s-.12-2.0833-.705-2.947c-.586-.8637-1.466-1.484-2.476-1.7445v-17.712159l19.074-13.926241v-21.321c1.011-.2613 1.893-.8829 2.479-1.7481.586-.8653.837-1.9148.705-2.9519s-.636-1.9905-1.42-2.6816-1.792-1.0724-2.837-1.0724c-1.044 0-2.053.3813-2.836 1.0724-.784.6911-1.289 1.6445-1.421 2.6816-.131 1.0371.12 2.0866.706 2.9519.586.8652 1.467 1.4868 2.478 1.7481z"/></g></svg>